<?xml version="1.0" encoding="utf-8" standalone="no"?>
<!DOCTYPE svg PUBLIC "-//W3C//DTD SVG 1.1//EN"
  "http://www.w3.org/Graphics/SVG/1.1/DTD/svg11.dtd">
<!-- Created with matplotlib (http://matplotlib.org/) -->
<svg height="864pt" version="1.1" viewBox="0 0 1440 864" width="1440pt" xmlns="http://www.w3.org/2000/svg" xmlns:xlink="http://www.w3.org/1999/xlink">
 <defs>
  <style type="text/css">
*{stroke-linecap:butt;stroke-linejoin:round;}
  </style>
 </defs>
 <g id="figure_1">
  <g id="patch_1">
   <path d="M 0 864 
L 1440 864 
L 1440 0 
L 0 0 
z
" style="fill:#ffffff;"/>
  </g>
  <g id="axes_1">
   <g id="patch_2">
    <path d="M 47.25 251.666667 
L 714.96875 251.666667 
L 714.96875 20 
L 47.25 20 
z
" style="fill:#ffffff;"/>
   </g>
   <g id="matplotlib.axis_1">
    <g id="xtick_1">
     <g id="line2d_1">
      <defs>
       <path d="M 0 0 
L 0 3.5 
" id="m79581c27c9" style="stroke:#000000;stroke-width:0.8;"/>
      </defs>
      <g>
       <use style="stroke:#000000;stroke-width:0.8;" x="65.212749" xlink:href="#m79581c27c9" y="251.666667"/>
      </g>
     </g>
     <g id="text_1">
      <!-- 0 -->
      <defs>
       <path d="M 31.78125 66.40625 
Q 24.171875 66.40625 20.328125 58.90625 
Q 16.5 51.421875 16.5 36.375 
Q 16.5 21.390625 20.328125 13.890625 
Q 24.171875 6.390625 31.78125 6.390625 
Q 39.453125 6.390625 43.28125 13.890625 
Q 47.125 21.390625 47.125 36.375 
Q 47.125 51.421875 43.28125 58.90625 
Q 39.453125 66.40625 31.78125 66.40625 
z
M 31.78125 74.21875 
Q 44.046875 74.21875 50.515625 64.515625 
Q 56.984375 54.828125 56.984375 36.375 
Q 56.984375 17.96875 50.515625 8.265625 
Q 44.046875 -1.421875 31.78125 -1.421875 
Q 19.53125 -1.421875 13.0625 8.265625 
Q 6.59375 17.96875 6.59375 36.375 
Q 6.59375 54.828125 13.0625 64.515625 
Q 19.53125 74.21875 31.78125 74.21875 
z
" id="DejaVuSans-30"/>
      </defs>
      <g transform="translate(62.031499 266.265104)scale(0.1 -0.1)">
       <use xlink:href="#DejaVuSans-30"/>
      </g>
     </g>
    </g>
    <g id="xtick_2">
     <g id="line2d_2">
      <g>
       <use style="stroke:#000000;stroke-width:0.8;" x="189.093779" xlink:href="#m79581c27c9" y="251.666667"/>
      </g>
     </g>
     <g id="text_2">
      <!-- 20 -->
      <defs>
       <path d="M 19.1875 8.296875 
L 53.609375 8.296875 
L 53.609375 0 
L 7.328125 0 
L 7.328125 8.296875 
Q 12.9375 14.109375 22.625 23.890625 
Q 32.328125 33.6875 34.8125 36.53125 
Q 39.546875 41.84375 41.421875 45.53125 
Q 43.3125 49.21875 43.3125 52.78125 
Q 43.3125 58.59375 39.234375 62.25 
Q 35.15625 65.921875 28.609375 65.921875 
Q 23.96875 65.921875 18.8125 64.3125 
Q 13.671875 62.703125 7.8125 59.421875 
L 7.8125 69.390625 
Q 13.765625 71.78125 18.9375 73 
Q 24.125 74.21875 28.421875 74.21875 
Q 39.75 74.21875 46.484375 68.546875 
Q 53.21875 62.890625 53.21875 53.421875 
Q 53.21875 48.921875 51.53125 44.890625 
Q 49.859375 40.875 45.40625 35.40625 
Q 44.1875 33.984375 37.640625 27.21875 
Q 31.109375 20.453125 19.1875 8.296875 
z
" id="DejaVuSans-32"/>
      </defs>
      <g transform="translate(182.731279 266.265104)scale(0.1 -0.1)">
       <use xlink:href="#DejaVuSans-32"/>
       <use x="63.623047" xlink:href="#DejaVuSans-30"/>
      </g>
     </g>
    </g>
    <g id="xtick_3">
     <g id="line2d_3">
      <g>
       <use style="stroke:#000000;stroke-width:0.8;" x="312.974809" xlink:href="#m79581c27c9" y="251.666667"/>
      </g>
     </g>
     <g id="text_3">
      <!-- 40 -->
      <defs>
       <path d="M 37.796875 64.3125 
L 12.890625 25.390625 
L 37.796875 25.390625 
z
M 35.203125 72.90625 
L 47.609375 72.90625 
L 47.609375 25.390625 
L 58.015625 25.390625 
L 58.015625 17.1875 
L 47.609375 17.1875 
L 47.609375 0 
L 37.796875 0 
L 37.796875 17.1875 
L 4.890625 17.1875 
L 4.890625 26.703125 
z
" id="DejaVuSans-34"/>
      </defs>
      <g transform="translate(306.612309 266.265104)scale(0.1 -0.1)">
       <use xlink:href="#DejaVuSans-34"/>
       <use x="63.623047" xlink:href="#DejaVuSans-30"/>
      </g>
     </g>
    </g>
    <g id="xtick_4">
     <g id="line2d_4">
      <g>
       <use style="stroke:#000000;stroke-width:0.8;" x="436.855838" xlink:href="#m79581c27c9" y="251.666667"/>
      </g>
     </g>
     <g id="text_4">
      <!-- 60 -->
      <defs>
       <path d="M 33.015625 40.375 
Q 26.375 40.375 22.484375 35.828125 
Q 18.609375 31.296875 18.609375 23.390625 
Q 18.609375 15.53125 22.484375 10.953125 
Q 26.375 6.390625 33.015625 6.390625 
Q 39.65625 6.390625 43.53125 10.953125 
Q 47.40625 15.53125 47.40625 23.390625 
Q 47.40625 31.296875 43.53125 35.828125 
Q 39.65625 40.375 33.015625 40.375 
z
M 52.59375 71.296875 
L 52.59375 62.3125 
Q 48.875 64.0625 45.09375 64.984375 
Q 41.3125 65.921875 37.59375 65.921875 
Q 27.828125 65.921875 22.671875 59.328125 
Q 17.53125 52.734375 16.796875 39.40625 
Q 19.671875 43.65625 24.015625 45.921875 
Q 28.375 48.1875 33.59375 48.1875 
Q 44.578125 48.1875 50.953125 41.515625 
Q 57.328125 34.859375 57.328125 23.390625 
Q 57.328125 12.15625 50.6875 5.359375 
Q 44.046875 -1.421875 33.015625 -1.421875 
Q 20.359375 -1.421875 13.671875 8.265625 
Q 6.984375 17.96875 6.984375 36.375 
Q 6.984375 53.65625 15.1875 63.9375 
Q 23.390625 74.21875 37.203125 74.21875 
Q 40.921875 74.21875 44.703125 73.484375 
Q 48.484375 72.75 52.59375 71.296875 
z
" id="DejaVuSans-36"/>
      </defs>
      <g transform="translate(430.493338 266.265104)scale(0.1 -0.1)">
       <use xlink:href="#DejaVuSans-36"/>
       <use x="63.623047" xlink:href="#DejaVuSans-30"/>
      </g>
     </g>
    </g>
    <g id="xtick_5">
     <g id="line2d_5">
      <g>
       <use style="stroke:#000000;stroke-width:0.8;" x="560.736868" xlink:href="#m79581c27c9" y="251.666667"/>
      </g>
     </g>
     <g id="text_5">
      <!-- 80 -->
      <defs>
       <path d="M 31.78125 34.625 
Q 24.75 34.625 20.71875 30.859375 
Q 16.703125 27.09375 16.703125 20.515625 
Q 16.703125 13.921875 20.71875 10.15625 
Q 24.75 6.390625 31.78125 6.390625 
Q 38.8125 6.390625 42.859375 10.171875 
Q 46.921875 13.96875 46.921875 20.515625 
Q 46.921875 27.09375 42.890625 30.859375 
Q 38.875 34.625 31.78125 34.625 
z
M 21.921875 38.8125 
Q 15.578125 40.375 12.03125 44.71875 
Q 8.5 49.078125 8.5 55.328125 
Q 8.5 64.0625 14.71875 69.140625 
Q 20.953125 74.21875 31.78125 74.21875 
Q 42.671875 74.21875 48.875 69.140625 
Q 55.078125 64.0625 55.078125 55.328125 
Q 55.078125 49.078125 51.53125 44.71875 
Q 48 40.375 41.703125 38.8125 
Q 48.828125 37.15625 52.796875 32.3125 
Q 56.78125 27.484375 56.78125 20.515625 
Q 56.78125 9.90625 50.3125 4.234375 
Q 43.84375 -1.421875 31.78125 -1.421875 
Q 19.734375 -1.421875 13.25 4.234375 
Q 6.78125 9.90625 6.78125 20.515625 
Q 6.78125 27.484375 10.78125 32.3125 
Q 14.796875 37.15625 21.921875 38.8125 
z
M 18.3125 54.390625 
Q 18.3125 48.734375 21.84375 45.5625 
Q 25.390625 42.390625 31.78125 42.390625 
Q 38.140625 42.390625 41.71875 45.5625 
Q 45.3125 48.734375 45.3125 54.390625 
Q 45.3125 60.0625 41.71875 63.234375 
Q 38.140625 66.40625 31.78125 66.40625 
Q 25.390625 66.40625 21.84375 63.234375 
Q 18.3125 60.0625 18.3125 54.390625 
z
" id="DejaVuSans-38"/>
      </defs>
      <g transform="translate(554.374368 266.265104)scale(0.1 -0.1)">
       <use xlink:href="#DejaVuSans-38"/>
       <use x="63.623047" xlink:href="#DejaVuSans-30"/>
      </g>
     </g>
    </g>
    <g id="xtick_6">
     <g id="line2d_6">
      <g>
       <use style="stroke:#000000;stroke-width:0.8;" x="684.617898" xlink:href="#m79581c27c9" y="251.666667"/>
      </g>
     </g>
     <g id="text_6">
      <!-- 100 -->
      <defs>
       <path d="M 12.40625 8.296875 
L 28.515625 8.296875 
L 28.515625 63.921875 
L 10.984375 60.40625 
L 10.984375 69.390625 
L 28.421875 72.90625 
L 38.28125 72.90625 
L 38.28125 8.296875 
L 54.390625 8.296875 
L 54.390625 0 
L 12.40625 0 
z
" id="DejaVuSans-31"/>
      </defs>
      <g transform="translate(675.074148 266.265104)scale(0.1 -0.1)">
       <use xlink:href="#DejaVuSans-31"/>
       <use x="63.623047" xlink:href="#DejaVuSans-30"/>
       <use x="127.246094" xlink:href="#DejaVuSans-30"/>
      </g>
     </g>
    </g>
    <g id="text_7">
     <!-- Number of clusters -->
     <defs>
      <path d="M 9.8125 72.90625 
L 23.09375 72.90625 
L 55.421875 11.921875 
L 55.421875 72.90625 
L 64.984375 72.90625 
L 64.984375 0 
L 51.703125 0 
L 19.390625 60.984375 
L 19.390625 0 
L 9.8125 0 
z
" id="DejaVuSans-4e"/>
      <path d="M 8.5 21.578125 
L 8.5 54.6875 
L 17.484375 54.6875 
L 17.484375 21.921875 
Q 17.484375 14.15625 20.5 10.265625 
Q 23.53125 6.390625 29.59375 6.390625 
Q 36.859375 6.390625 41.078125 11.03125 
Q 45.3125 15.671875 45.3125 23.6875 
L 45.3125 54.6875 
L 54.296875 54.6875 
L 54.296875 0 
L 45.3125 0 
L 45.3125 8.40625 
Q 42.046875 3.421875 37.71875 1 
Q 33.40625 -1.421875 27.6875 -1.421875 
Q 18.265625 -1.421875 13.375 4.4375 
Q 8.5 10.296875 8.5 21.578125 
z
M 31.109375 56 
z
" id="DejaVuSans-75"/>
      <path d="M 52 44.1875 
Q 55.375 50.25 60.0625 53.125 
Q 64.75 56 71.09375 56 
Q 79.640625 56 84.28125 50.015625 
Q 88.921875 44.046875 88.921875 33.015625 
L 88.921875 0 
L 79.890625 0 
L 79.890625 32.71875 
Q 79.890625 40.578125 77.09375 44.375 
Q 74.3125 48.1875 68.609375 48.1875 
Q 61.625 48.1875 57.5625 43.546875 
Q 53.515625 38.921875 53.515625 30.90625 
L 53.515625 0 
L 44.484375 0 
L 44.484375 32.71875 
Q 44.484375 40.625 41.703125 44.40625 
Q 38.921875 48.1875 33.109375 48.1875 
Q 26.21875 48.1875 22.15625 43.53125 
Q 18.109375 38.875 18.109375 30.90625 
L 18.109375 0 
L 9.078125 0 
L 9.078125 54.6875 
L 18.109375 54.6875 
L 18.109375 46.1875 
Q 21.1875 51.21875 25.484375 53.609375 
Q 29.78125 56 35.6875 56 
Q 41.65625 56 45.828125 52.96875 
Q 50 49.953125 52 44.1875 
z
" id="DejaVuSans-6d"/>
      <path d="M 48.6875 27.296875 
Q 48.6875 37.203125 44.609375 42.84375 
Q 40.53125 48.484375 33.40625 48.484375 
Q 26.265625 48.484375 22.1875 42.84375 
Q 18.109375 37.203125 18.109375 27.296875 
Q 18.109375 17.390625 22.1875 11.75 
Q 26.265625 6.109375 33.40625 6.109375 
Q 40.53125 6.109375 44.609375 11.75 
Q 48.6875 17.390625 48.6875 27.296875 
z
M 18.109375 46.390625 
Q 20.953125 51.265625 25.265625 53.625 
Q 29.59375 56 35.59375 56 
Q 45.5625 56 51.78125 48.09375 
Q 58.015625 40.1875 58.015625 27.296875 
Q 58.015625 14.40625 51.78125 6.484375 
Q 45.5625 -1.421875 35.59375 -1.421875 
Q 29.59375 -1.421875 25.265625 0.953125 
Q 20.953125 3.328125 18.109375 8.203125 
L 18.109375 0 
L 9.078125 0 
L 9.078125 75.984375 
L 18.109375 75.984375 
z
" id="DejaVuSans-62"/>
      <path d="M 56.203125 29.59375 
L 56.203125 25.203125 
L 14.890625 25.203125 
Q 15.484375 15.921875 20.484375 11.0625 
Q 25.484375 6.203125 34.421875 6.203125 
Q 39.59375 6.203125 44.453125 7.46875 
Q 49.3125 8.734375 54.109375 11.28125 
L 54.109375 2.78125 
Q 49.265625 0.734375 44.1875 -0.34375 
Q 39.109375 -1.421875 33.890625 -1.421875 
Q 20.796875 -1.421875 13.15625 6.1875 
Q 5.515625 13.8125 5.515625 26.8125 
Q 5.515625 40.234375 12.765625 48.109375 
Q 20.015625 56 32.328125 56 
Q 43.359375 56 49.78125 48.890625 
Q 56.203125 41.796875 56.203125 29.59375 
z
M 47.21875 32.234375 
Q 47.125 39.59375 43.09375 43.984375 
Q 39.0625 48.390625 32.421875 48.390625 
Q 24.90625 48.390625 20.390625 44.140625 
Q 15.875 39.890625 15.1875 32.171875 
z
" id="DejaVuSans-65"/>
      <path d="M 41.109375 46.296875 
Q 39.59375 47.171875 37.8125 47.578125 
Q 36.03125 48 33.890625 48 
Q 26.265625 48 22.1875 43.046875 
Q 18.109375 38.09375 18.109375 28.8125 
L 18.109375 0 
L 9.078125 0 
L 9.078125 54.6875 
L 18.109375 54.6875 
L 18.109375 46.1875 
Q 20.953125 51.171875 25.484375 53.578125 
Q 30.03125 56 36.53125 56 
Q 37.453125 56 38.578125 55.875 
Q 39.703125 55.765625 41.0625 55.515625 
z
" id="DejaVuSans-72"/>
      <path id="DejaVuSans-20"/>
      <path d="M 30.609375 48.390625 
Q 23.390625 48.390625 19.1875 42.75 
Q 14.984375 37.109375 14.984375 27.296875 
Q 14.984375 17.484375 19.15625 11.84375 
Q 23.34375 6.203125 30.609375 6.203125 
Q 37.796875 6.203125 41.984375 11.859375 
Q 46.1875 17.53125 46.1875 27.296875 
Q 46.1875 37.015625 41.984375 42.703125 
Q 37.796875 48.390625 30.609375 48.390625 
z
M 30.609375 56 
Q 42.328125 56 49.015625 48.375 
Q 55.71875 40.765625 55.71875 27.296875 
Q 55.71875 13.875 49.015625 6.21875 
Q 42.328125 -1.421875 30.609375 -1.421875 
Q 18.84375 -1.421875 12.171875 6.21875 
Q 5.515625 13.875 5.515625 27.296875 
Q 5.515625 40.765625 12.171875 48.375 
Q 18.84375 56 30.609375 56 
z
" id="DejaVuSans-6f"/>
      <path d="M 37.109375 75.984375 
L 37.109375 68.5 
L 28.515625 68.5 
Q 23.6875 68.5 21.796875 66.546875 
Q 19.921875 64.59375 19.921875 59.515625 
L 19.921875 54.6875 
L 34.71875 54.6875 
L 34.71875 47.703125 
L 19.921875 47.703125 
L 19.921875 0 
L 10.890625 0 
L 10.890625 47.703125 
L 2.296875 47.703125 
L 2.296875 54.6875 
L 10.890625 54.6875 
L 10.890625 58.5 
Q 10.890625 67.625 15.140625 71.796875 
Q 19.390625 75.984375 28.609375 75.984375 
z
" id="DejaVuSans-66"/>
      <path d="M 48.78125 52.59375 
L 48.78125 44.1875 
Q 44.96875 46.296875 41.140625 47.34375 
Q 37.3125 48.390625 33.40625 48.390625 
Q 24.65625 48.390625 19.8125 42.84375 
Q 14.984375 37.3125 14.984375 27.296875 
Q 14.984375 17.28125 19.8125 11.734375 
Q 24.65625 6.203125 33.40625 6.203125 
Q 37.3125 6.203125 41.140625 7.25 
Q 44.96875 8.296875 48.78125 10.40625 
L 48.78125 2.09375 
Q 45.015625 0.34375 40.984375 -0.53125 
Q 36.96875 -1.421875 32.421875 -1.421875 
Q 20.0625 -1.421875 12.78125 6.34375 
Q 5.515625 14.109375 5.515625 27.296875 
Q 5.515625 40.671875 12.859375 48.328125 
Q 20.21875 56 33.015625 56 
Q 37.15625 56 41.109375 55.140625 
Q 45.0625 54.296875 48.78125 52.59375 
z
" id="DejaVuSans-63"/>
      <path d="M 9.421875 75.984375 
L 18.40625 75.984375 
L 18.40625 0 
L 9.421875 0 
z
" id="DejaVuSans-6c"/>
      <path d="M 44.28125 53.078125 
L 44.28125 44.578125 
Q 40.484375 46.53125 36.375 47.5 
Q 32.28125 48.484375 27.875 48.484375 
Q 21.1875 48.484375 17.84375 46.4375 
Q 14.5 44.390625 14.5 40.28125 
Q 14.5 37.15625 16.890625 35.375 
Q 19.28125 33.59375 26.515625 31.984375 
L 29.59375 31.296875 
Q 39.15625 29.25 43.1875 25.515625 
Q 47.21875 21.78125 47.21875 15.09375 
Q 47.21875 7.46875 41.1875 3.015625 
Q 35.15625 -1.421875 24.609375 -1.421875 
Q 20.21875 -1.421875 15.453125 -0.5625 
Q 10.6875 0.296875 5.421875 2 
L 5.421875 11.28125 
Q 10.40625 8.6875 15.234375 7.390625 
Q 20.0625 6.109375 24.8125 6.109375 
Q 31.15625 6.109375 34.5625 8.28125 
Q 37.984375 10.453125 37.984375 14.40625 
Q 37.984375 18.0625 35.515625 20.015625 
Q 33.0625 21.96875 24.703125 23.78125 
L 21.578125 24.515625 
Q 13.234375 26.265625 9.515625 29.90625 
Q 5.8125 33.546875 5.8125 39.890625 
Q 5.8125 47.609375 11.28125 51.796875 
Q 16.75 56 26.8125 56 
Q 31.78125 56 36.171875 55.265625 
Q 40.578125 54.546875 44.28125 53.078125 
z
" id="DejaVuSans-73"/>
      <path d="M 18.3125 70.21875 
L 18.3125 54.6875 
L 36.8125 54.6875 
L 36.8125 47.703125 
L 18.3125 47.703125 
L 18.3125 18.015625 
Q 18.3125 11.328125 20.140625 9.421875 
Q 21.96875 7.515625 27.59375 7.515625 
L 36.8125 7.515625 
L 36.8125 0 
L 27.59375 0 
Q 17.1875 0 13.234375 3.875 
Q 9.28125 7.765625 9.28125 18.015625 
L 9.28125 47.703125 
L 2.6875 47.703125 
L 2.6875 54.6875 
L 9.28125 54.6875 
L 9.28125 70.21875 
z
" id="DejaVuSans-74"/>
     </defs>
     <g transform="translate(333.417188 279.943229)scale(0.1 -0.1)">
      <use xlink:href="#DejaVuSans-4e"/>
      <use x="74.804688" xlink:href="#DejaVuSans-75"/>
      <use x="138.183594" xlink:href="#DejaVuSans-6d"/>
      <use x="235.595703" xlink:href="#DejaVuSans-62"/>
      <use x="299.072266" xlink:href="#DejaVuSans-65"/>
      <use x="360.595703" xlink:href="#DejaVuSans-72"/>
      <use x="401.708984" xlink:href="#DejaVuSans-20"/>
      <use x="433.496094" xlink:href="#DejaVuSans-6f"/>
      <use x="494.677734" xlink:href="#DejaVuSans-66"/>
      <use x="529.882812" xlink:href="#DejaVuSans-20"/>
      <use x="561.669922" xlink:href="#DejaVuSans-63"/>
      <use x="616.650391" xlink:href="#DejaVuSans-6c"/>
      <use x="644.433594" xlink:href="#DejaVuSans-75"/>
      <use x="707.8125" xlink:href="#DejaVuSans-73"/>
      <use x="759.912109" xlink:href="#DejaVuSans-74"/>
      <use x="799.121094" xlink:href="#DejaVuSans-65"/>
      <use x="860.644531" xlink:href="#DejaVuSans-72"/>
      <use x="901.757812" xlink:href="#DejaVuSans-73"/>
     </g>
    </g>
   </g>
   <g id="matplotlib.axis_2">
    <g id="ytick_1">
     <g id="line2d_7">
      <defs>
       <path d="M 0 0 
L -3.5 0 
" id="ma14b09d008" style="stroke:#000000;stroke-width:0.8;"/>
      </defs>
      <g>
       <use style="stroke:#000000;stroke-width:0.8;" x="47.25" xlink:href="#ma14b09d008" y="250.728867"/>
      </g>
     </g>
     <g id="text_8">
      <!-- 0.1 -->
      <defs>
       <path d="M 10.6875 12.40625 
L 21 12.40625 
L 21 0 
L 10.6875 0 
z
" id="DejaVuSans-2e"/>
      </defs>
      <g transform="translate(24.346875 254.528086)scale(0.1 -0.1)">
       <use xlink:href="#DejaVuSans-30"/>
       <use x="63.623047" xlink:href="#DejaVuSans-2e"/>
       <use x="95.410156" xlink:href="#DejaVuSans-31"/>
      </g>
     </g>
    </g>
    <g id="ytick_2">
     <g id="line2d_8">
      <g>
       <use style="stroke:#000000;stroke-width:0.8;" x="47.25" xlink:href="#ma14b09d008" y="215.751311"/>
      </g>
     </g>
     <g id="text_9">
      <!-- 0.2 -->
      <g transform="translate(24.346875 219.55053)scale(0.1 -0.1)">
       <use xlink:href="#DejaVuSans-30"/>
       <use x="63.623047" xlink:href="#DejaVuSans-2e"/>
       <use x="95.410156" xlink:href="#DejaVuSans-32"/>
      </g>
     </g>
    </g>
    <g id="ytick_3">
     <g id="line2d_9">
      <g>
       <use style="stroke:#000000;stroke-width:0.8;" x="47.25" xlink:href="#ma14b09d008" y="180.773755"/>
      </g>
     </g>
     <g id="text_10">
      <!-- 0.3 -->
      <defs>
       <path d="M 40.578125 39.3125 
Q 47.65625 37.796875 51.625 33 
Q 55.609375 28.21875 55.609375 21.1875 
Q 55.609375 10.40625 48.1875 4.484375 
Q 40.765625 -1.421875 27.09375 -1.421875 
Q 22.515625 -1.421875 17.65625 -0.515625 
Q 12.796875 0.390625 7.625 2.203125 
L 7.625 11.71875 
Q 11.71875 9.328125 16.59375 8.109375 
Q 21.484375 6.890625 26.8125 6.890625 
Q 36.078125 6.890625 40.9375 10.546875 
Q 45.796875 14.203125 45.796875 21.1875 
Q 45.796875 27.640625 41.28125 31.265625 
Q 36.765625 34.90625 28.71875 34.90625 
L 20.21875 34.90625 
L 20.21875 43.015625 
L 29.109375 43.015625 
Q 36.375 43.015625 40.234375 45.921875 
Q 44.09375 48.828125 44.09375 54.296875 
Q 44.09375 59.90625 40.109375 62.90625 
Q 36.140625 65.921875 28.71875 65.921875 
Q 24.65625 65.921875 20.015625 65.03125 
Q 15.375 64.15625 9.8125 62.3125 
L 9.8125 71.09375 
Q 15.4375 72.65625 20.34375 73.4375 
Q 25.25 74.21875 29.59375 74.21875 
Q 40.828125 74.21875 47.359375 69.109375 
Q 53.90625 64.015625 53.90625 55.328125 
Q 53.90625 49.265625 50.4375 45.09375 
Q 46.96875 40.921875 40.578125 39.3125 
z
" id="DejaVuSans-33"/>
      </defs>
      <g transform="translate(24.346875 184.572974)scale(0.1 -0.1)">
       <use xlink:href="#DejaVuSans-30"/>
       <use x="63.623047" xlink:href="#DejaVuSans-2e"/>
       <use x="95.410156" xlink:href="#DejaVuSans-33"/>
      </g>
     </g>
    </g>
    <g id="ytick_4">
     <g id="line2d_10">
      <g>
       <use style="stroke:#000000;stroke-width:0.8;" x="47.25" xlink:href="#ma14b09d008" y="145.796199"/>
      </g>
     </g>
     <g id="text_11">
      <!-- 0.4 -->
      <g transform="translate(24.346875 149.595417)scale(0.1 -0.1)">
       <use xlink:href="#DejaVuSans-30"/>
       <use x="63.623047" xlink:href="#DejaVuSans-2e"/>
       <use x="95.410156" xlink:href="#DejaVuSans-34"/>
      </g>
     </g>
    </g>
    <g id="ytick_5">
     <g id="line2d_11">
      <g>
       <use style="stroke:#000000;stroke-width:0.8;" x="47.25" xlink:href="#ma14b09d008" y="110.818643"/>
      </g>
     </g>
     <g id="text_12">
      <!-- 0.5 -->
      <defs>
       <path d="M 10.796875 72.90625 
L 49.515625 72.90625 
L 49.515625 64.59375 
L 19.828125 64.59375 
L 19.828125 46.734375 
Q 21.96875 47.46875 24.109375 47.828125 
Q 26.265625 48.1875 28.421875 48.1875 
Q 40.625 48.1875 47.75 41.5 
Q 54.890625 34.8125 54.890625 23.390625 
Q 54.890625 11.625 47.5625 5.09375 
Q 40.234375 -1.421875 26.90625 -1.421875 
Q 22.3125 -1.421875 17.546875 -0.640625 
Q 12.796875 0.140625 7.71875 1.703125 
L 7.71875 11.625 
Q 12.109375 9.234375 16.796875 8.0625 
Q 21.484375 6.890625 26.703125 6.890625 
Q 35.15625 6.890625 40.078125 11.328125 
Q 45.015625 15.765625 45.015625 23.390625 
Q 45.015625 31 40.078125 35.4375 
Q 35.15625 39.890625 26.703125 39.890625 
Q 22.75 39.890625 18.8125 39.015625 
Q 14.890625 38.140625 10.796875 36.28125 
z
" id="DejaVuSans-35"/>
      </defs>
      <g transform="translate(24.346875 114.617861)scale(0.1 -0.1)">
       <use xlink:href="#DejaVuSans-30"/>
       <use x="63.623047" xlink:href="#DejaVuSans-2e"/>
       <use x="95.410156" xlink:href="#DejaVuSans-35"/>
      </g>
     </g>
    </g>
    <g id="ytick_6">
     <g id="line2d_12">
      <g>
       <use style="stroke:#000000;stroke-width:0.8;" x="47.25" xlink:href="#ma14b09d008" y="75.841086"/>
      </g>
     </g>
     <g id="text_13">
      <!-- 0.6 -->
      <g transform="translate(24.346875 79.640305)scale(0.1 -0.1)">
       <use xlink:href="#DejaVuSans-30"/>
       <use x="63.623047" xlink:href="#DejaVuSans-2e"/>
       <use x="95.410156" xlink:href="#DejaVuSans-36"/>
      </g>
     </g>
    </g>
    <g id="ytick_7">
     <g id="line2d_13">
      <g>
       <use style="stroke:#000000;stroke-width:0.8;" x="47.25" xlink:href="#ma14b09d008" y="40.86353"/>
      </g>
     </g>
     <g id="text_14">
      <!-- 0.7 -->
      <defs>
       <path d="M 8.203125 72.90625 
L 55.078125 72.90625 
L 55.078125 68.703125 
L 28.609375 0 
L 18.3125 0 
L 43.21875 64.59375 
L 8.203125 64.59375 
z
" id="DejaVuSans-37"/>
      </defs>
      <g transform="translate(24.346875 44.662749)scale(0.1 -0.1)">
       <use xlink:href="#DejaVuSans-30"/>
       <use x="63.623047" xlink:href="#DejaVuSans-2e"/>
       <use x="95.410156" xlink:href="#DejaVuSans-37"/>
      </g>
     </g>
    </g>
    <g id="text_15">
     <!-- Precision -->
     <defs>
      <path d="M 19.671875 64.796875 
L 19.671875 37.40625 
L 32.078125 37.40625 
Q 38.96875 37.40625 42.71875 40.96875 
Q 46.484375 44.53125 46.484375 51.125 
Q 46.484375 57.671875 42.71875 61.234375 
Q 38.96875 64.796875 32.078125 64.796875 
z
M 9.8125 72.90625 
L 32.078125 72.90625 
Q 44.34375 72.90625 50.609375 67.359375 
Q 56.890625 61.8125 56.890625 51.125 
Q 56.890625 40.328125 50.609375 34.8125 
Q 44.34375 29.296875 32.078125 29.296875 
L 19.671875 29.296875 
L 19.671875 0 
L 9.8125 0 
z
" id="DejaVuSans-50"/>
      <path d="M 9.421875 54.6875 
L 18.40625 54.6875 
L 18.40625 0 
L 9.421875 0 
z
M 9.421875 75.984375 
L 18.40625 75.984375 
L 18.40625 64.59375 
L 9.421875 64.59375 
z
" id="DejaVuSans-69"/>
      <path d="M 54.890625 33.015625 
L 54.890625 0 
L 45.90625 0 
L 45.90625 32.71875 
Q 45.90625 40.484375 42.875 44.328125 
Q 39.84375 48.1875 33.796875 48.1875 
Q 26.515625 48.1875 22.3125 43.546875 
Q 18.109375 38.921875 18.109375 30.90625 
L 18.109375 0 
L 9.078125 0 
L 9.078125 54.6875 
L 18.109375 54.6875 
L 18.109375 46.1875 
Q 21.34375 51.125 25.703125 53.5625 
Q 30.078125 56 35.796875 56 
Q 45.21875 56 50.046875 50.171875 
Q 54.890625 44.34375 54.890625 33.015625 
z
" id="DejaVuSans-6e"/>
     </defs>
     <g transform="translate(18.267187 158.338021)rotate(-90)scale(0.1 -0.1)">
      <use xlink:href="#DejaVuSans-50"/>
      <use x="60.287109" xlink:href="#DejaVuSans-72"/>
      <use x="101.369141" xlink:href="#DejaVuSans-65"/>
      <use x="162.892578" xlink:href="#DejaVuSans-63"/>
      <use x="217.873047" xlink:href="#DejaVuSans-69"/>
      <use x="245.65625" xlink:href="#DejaVuSans-73"/>
      <use x="297.755859" xlink:href="#DejaVuSans-69"/>
      <use x="325.539062" xlink:href="#DejaVuSans-6f"/>
      <use x="386.720703" xlink:href="#DejaVuSans-6e"/>
     </g>
    </g>
   </g>
   <g id="line2d_14">
    <path clip-path="url(#pd055a31bff)" d="M 77.600852 241.136364 
L 83.794904 213.186832 
L 89.988955 185.69778 
L 96.183007 171.081848 
L 102.377058 164.211263 
L 108.57111 174.181772 
L 114.765161 160.964054 
L 120.959213 157.272949 
L 127.153264 153.685449 
L 133.347316 151.791233 
L 139.541367 148.146775 
L 145.735419 143.91348 
L 151.92947 142.814236 
L 158.123522 122.547257 
L 164.317573 130.907021 
L 170.511625 106.456346 
L 176.705676 105.949824 
L 182.899728 104.134028 
L 189.093779 100.825387 
L 195.28783 114.77786 
L 201.481882 84.633374 
L 207.675933 106.403433 
L 213.869985 109.774914 
L 220.064036 102.463896 
L 226.258088 102.008876 
L 232.452139 86.242641 
L 238.646191 87.771711 
L 244.840242 79.111723 
L 251.034294 89.840657 
L 257.228345 84.69655 
L 263.422397 81.092475 
L 269.616448 81.379723 
L 275.8105 84.030821 
L 282.004551 84.526207 
L 288.198603 83.090727 
L 294.392654 83.008278 
L 300.586706 81.119525 
L 306.780757 69.329929 
L 312.974809 72.663297 
L 319.16886 76.227903 
L 325.362912 71.845289 
L 331.556963 72.324727 
L 337.751015 71.959167 
L 343.945066 74.463739 
L 350.139118 76.708197 
L 356.333169 65.913818 
L 362.527221 70.330151 
L 368.721272 65.306192 
L 374.915324 67.169969 
L 381.109375 64.87298 
L 387.303426 73.010823 
L 393.497478 67.268212 
L 399.691529 60.686682 
L 405.885581 59.960216 
L 412.079632 54.665863 
L 418.273684 65.541615 
L 424.467735 65.858024 
L 430.661787 66.195897 
L 436.855838 54.141311 
L 443.04989 62.956375 
L 449.243941 56.056592 
L 455.437993 49.629537 
L 461.632044 53.106809 
L 467.826096 62.022861 
L 474.020147 55.724982 
L 480.214199 48.202011 
L 486.40825 58.893634 
L 492.602302 52.005574 
L 498.796353 46.779453 
L 504.990405 46.564823 
L 511.184456 56.438175 
L 517.378508 44.560307 
L 523.572559 45.20212 
L 529.766611 51.34762 
L 535.960662 47.645037 
L 542.154714 56.218818 
L 548.348765 47.944879 
L 554.542817 53.109354 
L 560.736868 49.6966 
L 566.93092 47.96667 
L 573.124971 42.6864 
L 579.319022 44.734547 
L 585.513074 44.647403 
L 591.707125 41.463163 
L 597.901177 48.770711 
L 604.095228 42.359047 
L 610.28928 42.185631 
L 616.483331 48.557525 
L 622.677383 39.51382 
L 628.871434 45.672353 
L 635.065486 30.530303 
L 641.259537 34.957093 
L 647.453589 37.746534 
L 653.64764 33.134965 
L 659.841692 37.154198 
L 666.035743 35.241789 
L 672.229795 45.446459 
L 678.423846 38.960089 
L 684.617898 37.868265 
" style="fill:none;stroke:#1f77b4;stroke-linecap:square;stroke-width:1.5;"/>
   </g>
   <g id="patch_3">
    <path d="M 47.25 251.666667 
L 47.25 20 
" style="fill:none;stroke:#000000;stroke-linecap:square;stroke-linejoin:miter;stroke-width:0.8;"/>
   </g>
   <g id="patch_4">
    <path d="M 714.96875 251.666667 
L 714.96875 20 
" style="fill:none;stroke:#000000;stroke-linecap:square;stroke-linejoin:miter;stroke-width:0.8;"/>
   </g>
   <g id="patch_5">
    <path d="M 47.25 251.666667 
L 714.96875 251.666667 
" style="fill:none;stroke:#000000;stroke-linecap:square;stroke-linejoin:miter;stroke-width:0.8;"/>
   </g>
   <g id="patch_6">
    <path d="M 47.25 20 
L 714.96875 20 
" style="fill:none;stroke:#000000;stroke-linecap:square;stroke-linejoin:miter;stroke-width:0.8;"/>
   </g>
   <g id="text_16">
    <!-- K-Means Precision -->
    <defs>
     <path d="M 9.8125 72.90625 
L 19.671875 72.90625 
L 19.671875 42.09375 
L 52.390625 72.90625 
L 65.09375 72.90625 
L 28.90625 38.921875 
L 67.671875 0 
L 54.6875 0 
L 19.671875 35.109375 
L 19.671875 0 
L 9.8125 0 
z
" id="DejaVuSans-4b"/>
     <path d="M 4.890625 31.390625 
L 31.203125 31.390625 
L 31.203125 23.390625 
L 4.890625 23.390625 
z
" id="DejaVuSans-2d"/>
     <path d="M 9.8125 72.90625 
L 24.515625 72.90625 
L 43.109375 23.296875 
L 61.8125 72.90625 
L 76.515625 72.90625 
L 76.515625 0 
L 66.890625 0 
L 66.890625 64.015625 
L 48.09375 14.015625 
L 38.1875 14.015625 
L 19.390625 64.015625 
L 19.390625 0 
L 9.8125 0 
z
" id="DejaVuSans-4d"/>
     <path d="M 34.28125 27.484375 
Q 23.390625 27.484375 19.1875 25 
Q 14.984375 22.515625 14.984375 16.5 
Q 14.984375 11.71875 18.140625 8.90625 
Q 21.296875 6.109375 26.703125 6.109375 
Q 34.1875 6.109375 38.703125 11.40625 
Q 43.21875 16.703125 43.21875 25.484375 
L 43.21875 27.484375 
z
M 52.203125 31.203125 
L 52.203125 0 
L 43.21875 0 
L 43.21875 8.296875 
Q 40.140625 3.328125 35.546875 0.953125 
Q 30.953125 -1.421875 24.3125 -1.421875 
Q 15.921875 -1.421875 10.953125 3.296875 
Q 6 8.015625 6 15.921875 
Q 6 25.140625 12.171875 29.828125 
Q 18.359375 34.515625 30.609375 34.515625 
L 43.21875 34.515625 
L 43.21875 35.40625 
Q 43.21875 41.609375 39.140625 45 
Q 35.0625 48.390625 27.6875 48.390625 
Q 23 48.390625 18.546875 47.265625 
Q 14.109375 46.140625 10.015625 43.890625 
L 10.015625 52.203125 
Q 14.9375 54.109375 19.578125 55.046875 
Q 24.21875 56 28.609375 56 
Q 40.484375 56 46.34375 49.84375 
Q 52.203125 43.703125 52.203125 31.203125 
z
" id="DejaVuSans-61"/>
    </defs>
    <g transform="translate(326.633125 14)scale(0.12 -0.12)">
     <use xlink:href="#DejaVuSans-4b"/>
     <use x="65.419922" xlink:href="#DejaVuSans-2d"/>
     <use x="101.503906" xlink:href="#DejaVuSans-4d"/>
     <use x="187.783203" xlink:href="#DejaVuSans-65"/>
     <use x="249.306641" xlink:href="#DejaVuSans-61"/>
     <use x="310.585938" xlink:href="#DejaVuSans-6e"/>
     <use x="373.964844" xlink:href="#DejaVuSans-73"/>
     <use x="426.064453" xlink:href="#DejaVuSans-20"/>
     <use x="457.851562" xlink:href="#DejaVuSans-50"/>
     <use x="518.138672" xlink:href="#DejaVuSans-72"/>
     <use x="559.220703" xlink:href="#DejaVuSans-65"/>
     <use x="620.744141" xlink:href="#DejaVuSans-63"/>
     <use x="675.724609" xlink:href="#DejaVuSans-69"/>
     <use x="703.507812" xlink:href="#DejaVuSans-73"/>
     <use x="755.607422" xlink:href="#DejaVuSans-69"/>
     <use x="783.390625" xlink:href="#DejaVuSans-6f"/>
     <use x="844.572266" xlink:href="#DejaVuSans-6e"/>
    </g>
   </g>
  </g>
  <g id="axes_2">
   <g id="patch_7">
    <path d="M 760.34375 251.666667 
L 1428.0625 251.666667 
L 1428.0625 20 
L 760.34375 20 
z
" style="fill:#ffffff;"/>
   </g>
   <g id="matplotlib.axis_3">
    <g id="xtick_7">
     <g id="line2d_15">
      <g>
       <use style="stroke:#000000;stroke-width:0.8;" x="778.306499" xlink:href="#m79581c27c9" y="251.666667"/>
      </g>
     </g>
     <g id="text_17">
      <!-- 0 -->
      <g transform="translate(775.125249 266.265104)scale(0.1 -0.1)">
       <use xlink:href="#DejaVuSans-30"/>
      </g>
     </g>
    </g>
    <g id="xtick_8">
     <g id="line2d_16">
      <g>
       <use style="stroke:#000000;stroke-width:0.8;" x="902.187529" xlink:href="#m79581c27c9" y="251.666667"/>
      </g>
     </g>
     <g id="text_18">
      <!-- 20 -->
      <g transform="translate(895.825029 266.265104)scale(0.1 -0.1)">
       <use xlink:href="#DejaVuSans-32"/>
       <use x="63.623047" xlink:href="#DejaVuSans-30"/>
      </g>
     </g>
    </g>
    <g id="xtick_9">
     <g id="line2d_17">
      <g>
       <use style="stroke:#000000;stroke-width:0.8;" x="1026.068559" xlink:href="#m79581c27c9" y="251.666667"/>
      </g>
     </g>
     <g id="text_19">
      <!-- 40 -->
      <g transform="translate(1019.706059 266.265104)scale(0.1 -0.1)">
       <use xlink:href="#DejaVuSans-34"/>
       <use x="63.623047" xlink:href="#DejaVuSans-30"/>
      </g>
     </g>
    </g>
    <g id="xtick_10">
     <g id="line2d_18">
      <g>
       <use style="stroke:#000000;stroke-width:0.8;" x="1149.949588" xlink:href="#m79581c27c9" y="251.666667"/>
      </g>
     </g>
     <g id="text_20">
      <!-- 60 -->
      <g transform="translate(1143.587088 266.265104)scale(0.1 -0.1)">
       <use xlink:href="#DejaVuSans-36"/>
       <use x="63.623047" xlink:href="#DejaVuSans-30"/>
      </g>
     </g>
    </g>
    <g id="xtick_11">
     <g id="line2d_19">
      <g>
       <use style="stroke:#000000;stroke-width:0.8;" x="1273.830618" xlink:href="#m79581c27c9" y="251.666667"/>
      </g>
     </g>
     <g id="text_21">
      <!-- 80 -->
      <g transform="translate(1267.468118 266.265104)scale(0.1 -0.1)">
       <use xlink:href="#DejaVuSans-38"/>
       <use x="63.623047" xlink:href="#DejaVuSans-30"/>
      </g>
     </g>
    </g>
    <g id="xtick_12">
     <g id="line2d_20">
      <g>
       <use style="stroke:#000000;stroke-width:0.8;" x="1397.711648" xlink:href="#m79581c27c9" y="251.666667"/>
      </g>
     </g>
     <g id="text_22">
      <!-- 100 -->
      <g transform="translate(1388.167898 266.265104)scale(0.1 -0.1)">
       <use xlink:href="#DejaVuSans-31"/>
       <use x="63.623047" xlink:href="#DejaVuSans-30"/>
       <use x="127.246094" xlink:href="#DejaVuSans-30"/>
      </g>
     </g>
    </g>
    <g id="text_23">
     <!-- Number of clusters -->
     <g transform="translate(1046.510937 279.943229)scale(0.1 -0.1)">
      <use xlink:href="#DejaVuSans-4e"/>
      <use x="74.804688" xlink:href="#DejaVuSans-75"/>
      <use x="138.183594" xlink:href="#DejaVuSans-6d"/>
      <use x="235.595703" xlink:href="#DejaVuSans-62"/>
      <use x="299.072266" xlink:href="#DejaVuSans-65"/>
      <use x="360.595703" xlink:href="#DejaVuSans-72"/>
      <use x="401.708984" xlink:href="#DejaVuSans-20"/>
      <use x="433.496094" xlink:href="#DejaVuSans-6f"/>
      <use x="494.677734" xlink:href="#DejaVuSans-66"/>
      <use x="529.882812" xlink:href="#DejaVuSans-20"/>
      <use x="561.669922" xlink:href="#DejaVuSans-63"/>
      <use x="616.650391" xlink:href="#DejaVuSans-6c"/>
      <use x="644.433594" xlink:href="#DejaVuSans-75"/>
      <use x="707.8125" xlink:href="#DejaVuSans-73"/>
      <use x="759.912109" xlink:href="#DejaVuSans-74"/>
      <use x="799.121094" xlink:href="#DejaVuSans-65"/>
      <use x="860.644531" xlink:href="#DejaVuSans-72"/>
      <use x="901.757812" xlink:href="#DejaVuSans-73"/>
     </g>
    </g>
   </g>
   <g id="matplotlib.axis_4">
    <g id="ytick_8">
     <g id="line2d_21">
      <g>
       <use style="stroke:#000000;stroke-width:0.8;" x="760.34375" xlink:href="#ma14b09d008" y="246.031847"/>
      </g>
     </g>
     <g id="text_24">
      <!-- 0.1 -->
      <g transform="translate(737.440625 249.831066)scale(0.1 -0.1)">
       <use xlink:href="#DejaVuSans-30"/>
       <use x="63.623047" xlink:href="#DejaVuSans-2e"/>
       <use x="95.410156" xlink:href="#DejaVuSans-31"/>
      </g>
     </g>
    </g>
    <g id="ytick_9">
     <g id="line2d_22">
      <g>
       <use style="stroke:#000000;stroke-width:0.8;" x="760.34375" xlink:href="#ma14b09d008" y="214.838341"/>
      </g>
     </g>
     <g id="text_25">
      <!-- 0.2 -->
      <g transform="translate(737.440625 218.63756)scale(0.1 -0.1)">
       <use xlink:href="#DejaVuSans-30"/>
       <use x="63.623047" xlink:href="#DejaVuSans-2e"/>
       <use x="95.410156" xlink:href="#DejaVuSans-32"/>
      </g>
     </g>
    </g>
    <g id="ytick_10">
     <g id="line2d_23">
      <g>
       <use style="stroke:#000000;stroke-width:0.8;" x="760.34375" xlink:href="#ma14b09d008" y="183.644836"/>
      </g>
     </g>
     <g id="text_26">
      <!-- 0.3 -->
      <g transform="translate(737.440625 187.444054)scale(0.1 -0.1)">
       <use xlink:href="#DejaVuSans-30"/>
       <use x="63.623047" xlink:href="#DejaVuSans-2e"/>
       <use x="95.410156" xlink:href="#DejaVuSans-33"/>
      </g>
     </g>
    </g>
    <g id="ytick_11">
     <g id="line2d_24">
      <g>
       <use style="stroke:#000000;stroke-width:0.8;" x="760.34375" xlink:href="#ma14b09d008" y="152.45133"/>
      </g>
     </g>
     <g id="text_27">
      <!-- 0.4 -->
      <g transform="translate(737.440625 156.250549)scale(0.1 -0.1)">
       <use xlink:href="#DejaVuSans-30"/>
       <use x="63.623047" xlink:href="#DejaVuSans-2e"/>
       <use x="95.410156" xlink:href="#DejaVuSans-34"/>
      </g>
     </g>
    </g>
    <g id="ytick_12">
     <g id="line2d_25">
      <g>
       <use style="stroke:#000000;stroke-width:0.8;" x="760.34375" xlink:href="#ma14b09d008" y="121.257824"/>
      </g>
     </g>
     <g id="text_28">
      <!-- 0.5 -->
      <g transform="translate(737.440625 125.057043)scale(0.1 -0.1)">
       <use xlink:href="#DejaVuSans-30"/>
       <use x="63.623047" xlink:href="#DejaVuSans-2e"/>
       <use x="95.410156" xlink:href="#DejaVuSans-35"/>
      </g>
     </g>
    </g>
    <g id="ytick_13">
     <g id="line2d_26">
      <g>
       <use style="stroke:#000000;stroke-width:0.8;" x="760.34375" xlink:href="#ma14b09d008" y="90.064319"/>
      </g>
     </g>
     <g id="text_29">
      <!-- 0.6 -->
      <g transform="translate(737.440625 93.863537)scale(0.1 -0.1)">
       <use xlink:href="#DejaVuSans-30"/>
       <use x="63.623047" xlink:href="#DejaVuSans-2e"/>
       <use x="95.410156" xlink:href="#DejaVuSans-36"/>
      </g>
     </g>
    </g>
    <g id="ytick_14">
     <g id="line2d_27">
      <g>
       <use style="stroke:#000000;stroke-width:0.8;" x="760.34375" xlink:href="#ma14b09d008" y="58.870813"/>
      </g>
     </g>
     <g id="text_30">
      <!-- 0.7 -->
      <g transform="translate(737.440625 62.670032)scale(0.1 -0.1)">
       <use xlink:href="#DejaVuSans-30"/>
       <use x="63.623047" xlink:href="#DejaVuSans-2e"/>
       <use x="95.410156" xlink:href="#DejaVuSans-37"/>
      </g>
     </g>
    </g>
    <g id="ytick_15">
     <g id="line2d_28">
      <g>
       <use style="stroke:#000000;stroke-width:0.8;" x="760.34375" xlink:href="#ma14b09d008" y="27.677307"/>
      </g>
     </g>
     <g id="text_31">
      <!-- 0.8 -->
      <g transform="translate(737.440625 31.476526)scale(0.1 -0.1)">
       <use xlink:href="#DejaVuSans-30"/>
       <use x="63.623047" xlink:href="#DejaVuSans-2e"/>
       <use x="95.410156" xlink:href="#DejaVuSans-38"/>
      </g>
     </g>
    </g>
    <g id="text_32">
     <!-- Recall -->
     <defs>
      <path d="M 44.390625 34.1875 
Q 47.5625 33.109375 50.5625 29.59375 
Q 53.5625 26.078125 56.59375 19.921875 
L 66.609375 0 
L 56 0 
L 46.6875 18.703125 
Q 43.0625 26.03125 39.671875 28.421875 
Q 36.28125 30.8125 30.421875 30.8125 
L 19.671875 30.8125 
L 19.671875 0 
L 9.8125 0 
L 9.8125 72.90625 
L 32.078125 72.90625 
Q 44.578125 72.90625 50.734375 67.671875 
Q 56.890625 62.453125 56.890625 51.90625 
Q 56.890625 45.015625 53.6875 40.46875 
Q 50.484375 35.9375 44.390625 34.1875 
z
M 19.671875 64.796875 
L 19.671875 38.921875 
L 32.078125 38.921875 
Q 39.203125 38.921875 42.84375 42.21875 
Q 46.484375 45.515625 46.484375 51.90625 
Q 46.484375 58.296875 42.84375 61.546875 
Q 39.203125 64.796875 32.078125 64.796875 
z
" id="DejaVuSans-52"/>
     </defs>
     <g transform="translate(731.360937 150.972396)rotate(-90)scale(0.1 -0.1)">
      <use xlink:href="#DejaVuSans-52"/>
      <use x="69.419922" xlink:href="#DejaVuSans-65"/>
      <use x="130.943359" xlink:href="#DejaVuSans-63"/>
      <use x="185.923828" xlink:href="#DejaVuSans-61"/>
      <use x="247.203125" xlink:href="#DejaVuSans-6c"/>
      <use x="274.986328" xlink:href="#DejaVuSans-6c"/>
     </g>
    </g>
   </g>
   <g id="line2d_29">
    <path clip-path="url(#pccfb761a6a)" d="M 790.694602 30.530303 
L 796.888654 45.331446 
L 803.082705 51.073868 
L 809.276757 55.481036 
L 815.470808 69.28527 
L 821.66486 110.419382 
L 827.858911 117.619459 
L 834.052963 116.658817 
L 840.247014 129.170656 
L 846.441066 144.909774 
L 852.635117 146.092547 
L 858.829169 149.251003 
L 865.02322 149.826317 
L 871.217272 154.357943 
L 877.411323 158.265626 
L 883.605375 161.082438 
L 889.799426 164.875553 
L 895.993478 162.725544 
L 902.187529 165.566259 
L 908.38158 178.515353 
L 914.575632 167.37009 
L 920.769683 179.544818 
L 926.963735 185.529565 
L 933.157786 184.08922 
L 939.351838 187.425711 
L 945.545889 182.898205 
L 951.739941 187.250561 
L 957.933992 187.862966 
L 964.128044 200.167098 
L 970.322095 196.380989 
L 976.516147 196.102399 
L 982.710198 197.829989 
L 988.90425 201.338743 
L 995.098301 211.408383 
L 1001.292353 201.856361 
L 1007.486404 212.452685 
L 1013.680456 209.176364 
L 1019.874507 200.994627 
L 1026.068559 212.203767 
L 1032.26261 214.645966 
L 1038.456662 212.642258 
L 1044.650713 216.295254 
L 1050.844765 211.622684 
L 1057.038816 216.143183 
L 1063.232868 216.374792 
L 1069.426919 214.748995 
L 1075.620971 217.03665 
L 1081.815022 218.639781 
L 1088.009074 217.918578 
L 1094.203125 220.81328 
L 1100.397176 218.975655 
L 1106.591228 220.802565 
L 1112.785279 222.868914 
L 1118.979331 222.495537 
L 1125.173382 222.505016 
L 1131.367434 224.188509 
L 1137.561485 226.069406 
L 1143.755537 226.711071 
L 1149.949588 226.814924 
L 1156.14364 227.435571 
L 1162.337691 227.58146 
L 1168.531743 226.593206 
L 1174.725794 229.905793 
L 1180.919846 227.611956 
L 1187.113897 229.001199 
L 1193.307949 229.62267 
L 1199.502 231.855101 
L 1205.696052 225.699326 
L 1211.890103 232.895282 
L 1218.084155 230.329448 
L 1224.278206 230.845005 
L 1230.472258 230.591554 
L 1236.666309 231.877768 
L 1242.860361 232.074759 
L 1249.054412 232.646364 
L 1255.248464 233.853864 
L 1261.442515 232.797198 
L 1267.636567 233.978735 
L 1273.830618 234.423408 
L 1280.02467 236.588665 
L 1286.218721 236.233009 
L 1292.412772 235.465237 
L 1298.606824 235.601235 
L 1304.800875 237.24022 
L 1310.994927 238.474507 
L 1317.188978 234.220647 
L 1323.38303 237.84397 
L 1329.577081 240.05662 
L 1335.771133 236.076405 
L 1341.965184 236.88374 
L 1348.159236 237.871581 
L 1354.353287 237.285965 
L 1360.547339 238.900635 
L 1366.74139 241.136364 
L 1372.935442 238.876732 
L 1379.129493 239.119056 
L 1385.323545 240.429585 
L 1391.517596 240.961626 
L 1397.711648 240.469148 
" style="fill:none;stroke:#1f77b4;stroke-linecap:square;stroke-width:1.5;"/>
   </g>
   <g id="patch_8">
    <path d="M 760.34375 251.666667 
L 760.34375 20 
" style="fill:none;stroke:#000000;stroke-linecap:square;stroke-linejoin:miter;stroke-width:0.8;"/>
   </g>
   <g id="patch_9">
    <path d="M 1428.0625 251.666667 
L 1428.0625 20 
" style="fill:none;stroke:#000000;stroke-linecap:square;stroke-linejoin:miter;stroke-width:0.8;"/>
   </g>
   <g id="patch_10">
    <path d="M 760.34375 251.666667 
L 1428.0625 251.666667 
" style="fill:none;stroke:#000000;stroke-linecap:square;stroke-linejoin:miter;stroke-width:0.8;"/>
   </g>
   <g id="patch_11">
    <path d="M 760.34375 20 
L 1428.0625 20 
" style="fill:none;stroke:#000000;stroke-linecap:square;stroke-linejoin:miter;stroke-width:0.8;"/>
   </g>
   <g id="text_33">
    <!-- K-Means Recall -->
    <g transform="translate(1048.565625 14)scale(0.12 -0.12)">
     <use xlink:href="#DejaVuSans-4b"/>
     <use x="65.419922" xlink:href="#DejaVuSans-2d"/>
     <use x="101.503906" xlink:href="#DejaVuSans-4d"/>
     <use x="187.783203" xlink:href="#DejaVuSans-65"/>
     <use x="249.306641" xlink:href="#DejaVuSans-61"/>
     <use x="310.585938" xlink:href="#DejaVuSans-6e"/>
     <use x="373.964844" xlink:href="#DejaVuSans-73"/>
     <use x="426.064453" xlink:href="#DejaVuSans-20"/>
     <use x="457.851562" xlink:href="#DejaVuSans-52"/>
     <use x="527.271484" xlink:href="#DejaVuSans-65"/>
     <use x="588.794922" xlink:href="#DejaVuSans-63"/>
     <use x="643.775391" xlink:href="#DejaVuSans-61"/>
     <use x="705.054688" xlink:href="#DejaVuSans-6c"/>
     <use x="732.837891" xlink:href="#DejaVuSans-6c"/>
    </g>
   </g>
  </g>
  <g id="axes_3">
   <g id="patch_12">
    <path d="M 47.25 540.333333 
L 714.96875 540.333333 
L 714.96875 308.666667 
L 47.25 308.666667 
z
" style="fill:#ffffff;"/>
   </g>
   <g id="matplotlib.axis_5">
    <g id="xtick_13">
     <g id="line2d_30">
      <g>
       <use style="stroke:#000000;stroke-width:0.8;" x="65.212749" xlink:href="#m79581c27c9" y="540.333333"/>
      </g>
     </g>
     <g id="text_34">
      <!-- 0 -->
      <g transform="translate(62.031499 554.931771)scale(0.1 -0.1)">
       <use xlink:href="#DejaVuSans-30"/>
      </g>
     </g>
    </g>
    <g id="xtick_14">
     <g id="line2d_31">
      <g>
       <use style="stroke:#000000;stroke-width:0.8;" x="189.093779" xlink:href="#m79581c27c9" y="540.333333"/>
      </g>
     </g>
     <g id="text_35">
      <!-- 20 -->
      <g transform="translate(182.731279 554.931771)scale(0.1 -0.1)">
       <use xlink:href="#DejaVuSans-32"/>
       <use x="63.623047" xlink:href="#DejaVuSans-30"/>
      </g>
     </g>
    </g>
    <g id="xtick_15">
     <g id="line2d_32">
      <g>
       <use style="stroke:#000000;stroke-width:0.8;" x="312.974809" xlink:href="#m79581c27c9" y="540.333333"/>
      </g>
     </g>
     <g id="text_36">
      <!-- 40 -->
      <g transform="translate(306.612309 554.931771)scale(0.1 -0.1)">
       <use xlink:href="#DejaVuSans-34"/>
       <use x="63.623047" xlink:href="#DejaVuSans-30"/>
      </g>
     </g>
    </g>
    <g id="xtick_16">
     <g id="line2d_33">
      <g>
       <use style="stroke:#000000;stroke-width:0.8;" x="436.855838" xlink:href="#m79581c27c9" y="540.333333"/>
      </g>
     </g>
     <g id="text_37">
      <!-- 60 -->
      <g transform="translate(430.493338 554.931771)scale(0.1 -0.1)">
       <use xlink:href="#DejaVuSans-36"/>
       <use x="63.623047" xlink:href="#DejaVuSans-30"/>
      </g>
     </g>
    </g>
    <g id="xtick_17">
     <g id="line2d_34">
      <g>
       <use style="stroke:#000000;stroke-width:0.8;" x="560.736868" xlink:href="#m79581c27c9" y="540.333333"/>
      </g>
     </g>
     <g id="text_38">
      <!-- 80 -->
      <g transform="translate(554.374368 554.931771)scale(0.1 -0.1)">
       <use xlink:href="#DejaVuSans-38"/>
       <use x="63.623047" xlink:href="#DejaVuSans-30"/>
      </g>
     </g>
    </g>
    <g id="xtick_18">
     <g id="line2d_35">
      <g>
       <use style="stroke:#000000;stroke-width:0.8;" x="684.617898" xlink:href="#m79581c27c9" y="540.333333"/>
      </g>
     </g>
     <g id="text_39">
      <!-- 100 -->
      <g transform="translate(675.074148 554.931771)scale(0.1 -0.1)">
       <use xlink:href="#DejaVuSans-31"/>
       <use x="63.623047" xlink:href="#DejaVuSans-30"/>
       <use x="127.246094" xlink:href="#DejaVuSans-30"/>
      </g>
     </g>
    </g>
    <g id="text_40">
     <!-- Number of clusters -->
     <g transform="translate(333.417188 568.609896)scale(0.1 -0.1)">
      <use xlink:href="#DejaVuSans-4e"/>
      <use x="74.804688" xlink:href="#DejaVuSans-75"/>
      <use x="138.183594" xlink:href="#DejaVuSans-6d"/>
      <use x="235.595703" xlink:href="#DejaVuSans-62"/>
      <use x="299.072266" xlink:href="#DejaVuSans-65"/>
      <use x="360.595703" xlink:href="#DejaVuSans-72"/>
      <use x="401.708984" xlink:href="#DejaVuSans-20"/>
      <use x="433.496094" xlink:href="#DejaVuSans-6f"/>
      <use x="494.677734" xlink:href="#DejaVuSans-66"/>
      <use x="529.882812" xlink:href="#DejaVuSans-20"/>
      <use x="561.669922" xlink:href="#DejaVuSans-63"/>
      <use x="616.650391" xlink:href="#DejaVuSans-6c"/>
      <use x="644.433594" xlink:href="#DejaVuSans-75"/>
      <use x="707.8125" xlink:href="#DejaVuSans-73"/>
      <use x="759.912109" xlink:href="#DejaVuSans-74"/>
      <use x="799.121094" xlink:href="#DejaVuSans-65"/>
      <use x="860.644531" xlink:href="#DejaVuSans-72"/>
      <use x="901.757812" xlink:href="#DejaVuSans-73"/>
     </g>
    </g>
   </g>
   <g id="matplotlib.axis_6">
    <g id="ytick_16">
     <g id="line2d_36">
      <g>
       <use style="stroke:#000000;stroke-width:0.8;" x="47.25" xlink:href="#ma14b09d008" y="529.340142"/>
      </g>
     </g>
     <g id="text_41">
      <!-- 0.20 -->
      <g transform="translate(17.984375 533.139361)scale(0.1 -0.1)">
       <use xlink:href="#DejaVuSans-30"/>
       <use x="63.623047" xlink:href="#DejaVuSans-2e"/>
       <use x="95.410156" xlink:href="#DejaVuSans-32"/>
       <use x="159.033203" xlink:href="#DejaVuSans-30"/>
      </g>
     </g>
    </g>
    <g id="ytick_17">
     <g id="line2d_37">
      <g>
       <use style="stroke:#000000;stroke-width:0.8;" x="47.25" xlink:href="#ma14b09d008" y="488.411745"/>
      </g>
     </g>
     <g id="text_42">
      <!-- 0.25 -->
      <g transform="translate(17.984375 492.210964)scale(0.1 -0.1)">
       <use xlink:href="#DejaVuSans-30"/>
       <use x="63.623047" xlink:href="#DejaVuSans-2e"/>
       <use x="95.410156" xlink:href="#DejaVuSans-32"/>
       <use x="159.033203" xlink:href="#DejaVuSans-35"/>
      </g>
     </g>
    </g>
    <g id="ytick_18">
     <g id="line2d_38">
      <g>
       <use style="stroke:#000000;stroke-width:0.8;" x="47.25" xlink:href="#ma14b09d008" y="447.483348"/>
      </g>
     </g>
     <g id="text_43">
      <!-- 0.30 -->
      <g transform="translate(17.984375 451.282567)scale(0.1 -0.1)">
       <use xlink:href="#DejaVuSans-30"/>
       <use x="63.623047" xlink:href="#DejaVuSans-2e"/>
       <use x="95.410156" xlink:href="#DejaVuSans-33"/>
       <use x="159.033203" xlink:href="#DejaVuSans-30"/>
      </g>
     </g>
    </g>
    <g id="ytick_19">
     <g id="line2d_39">
      <g>
       <use style="stroke:#000000;stroke-width:0.8;" x="47.25" xlink:href="#ma14b09d008" y="406.554952"/>
      </g>
     </g>
     <g id="text_44">
      <!-- 0.35 -->
      <g transform="translate(17.984375 410.35417)scale(0.1 -0.1)">
       <use xlink:href="#DejaVuSans-30"/>
       <use x="63.623047" xlink:href="#DejaVuSans-2e"/>
       <use x="95.410156" xlink:href="#DejaVuSans-33"/>
       <use x="159.033203" xlink:href="#DejaVuSans-35"/>
      </g>
     </g>
    </g>
    <g id="ytick_20">
     <g id="line2d_40">
      <g>
       <use style="stroke:#000000;stroke-width:0.8;" x="47.25" xlink:href="#ma14b09d008" y="365.626555"/>
      </g>
     </g>
     <g id="text_45">
      <!-- 0.40 -->
      <g transform="translate(17.984375 369.425774)scale(0.1 -0.1)">
       <use xlink:href="#DejaVuSans-30"/>
       <use x="63.623047" xlink:href="#DejaVuSans-2e"/>
       <use x="95.410156" xlink:href="#DejaVuSans-34"/>
       <use x="159.033203" xlink:href="#DejaVuSans-30"/>
      </g>
     </g>
    </g>
    <g id="ytick_21">
     <g id="line2d_41">
      <g>
       <use style="stroke:#000000;stroke-width:0.8;" x="47.25" xlink:href="#ma14b09d008" y="324.698158"/>
      </g>
     </g>
     <g id="text_46">
      <!-- 0.45 -->
      <g transform="translate(17.984375 328.497377)scale(0.1 -0.1)">
       <use xlink:href="#DejaVuSans-30"/>
       <use x="63.623047" xlink:href="#DejaVuSans-2e"/>
       <use x="95.410156" xlink:href="#DejaVuSans-34"/>
       <use x="159.033203" xlink:href="#DejaVuSans-35"/>
      </g>
     </g>
    </g>
    <g id="text_47">
     <!-- F1-Score -->
     <defs>
      <path d="M 9.8125 72.90625 
L 51.703125 72.90625 
L 51.703125 64.59375 
L 19.671875 64.59375 
L 19.671875 43.109375 
L 48.578125 43.109375 
L 48.578125 34.8125 
L 19.671875 34.8125 
L 19.671875 0 
L 9.8125 0 
z
" id="DejaVuSans-46"/>
      <path d="M 53.515625 70.515625 
L 53.515625 60.890625 
Q 47.90625 63.578125 42.921875 64.890625 
Q 37.9375 66.21875 33.296875 66.21875 
Q 25.25 66.21875 20.875 63.09375 
Q 16.5 59.96875 16.5 54.203125 
Q 16.5 49.359375 19.40625 46.890625 
Q 22.3125 44.4375 30.421875 42.921875 
L 36.375 41.703125 
Q 47.40625 39.59375 52.65625 34.296875 
Q 57.90625 29 57.90625 20.125 
Q 57.90625 9.515625 50.796875 4.046875 
Q 43.703125 -1.421875 29.984375 -1.421875 
Q 24.8125 -1.421875 18.96875 -0.25 
Q 13.140625 0.921875 6.890625 3.21875 
L 6.890625 13.375 
Q 12.890625 10.015625 18.65625 8.296875 
Q 24.421875 6.59375 29.984375 6.59375 
Q 38.421875 6.59375 43.015625 9.90625 
Q 47.609375 13.234375 47.609375 19.390625 
Q 47.609375 24.75 44.3125 27.78125 
Q 41.015625 30.8125 33.5 32.328125 
L 27.484375 33.5 
Q 16.453125 35.6875 11.515625 40.375 
Q 6.59375 45.0625 6.59375 53.421875 
Q 6.59375 63.09375 13.40625 68.65625 
Q 20.21875 74.21875 32.171875 74.21875 
Q 37.3125 74.21875 42.625 73.28125 
Q 47.953125 72.359375 53.515625 70.515625 
z
" id="DejaVuSans-53"/>
     </defs>
     <g transform="translate(11.904687 446.474219)rotate(-90)scale(0.1 -0.1)">
      <use xlink:href="#DejaVuSans-46"/>
      <use x="57.519531" xlink:href="#DejaVuSans-31"/>
      <use x="121.142578" xlink:href="#DejaVuSans-2d"/>
      <use x="157.226562" xlink:href="#DejaVuSans-53"/>
      <use x="220.703125" xlink:href="#DejaVuSans-63"/>
      <use x="275.683594" xlink:href="#DejaVuSans-6f"/>
      <use x="336.865234" xlink:href="#DejaVuSans-72"/>
      <use x="377.947266" xlink:href="#DejaVuSans-65"/>
     </g>
    </g>
   </g>
   <g id="line2d_42">
    <path clip-path="url(#pa2d8af0130)" d="M 77.600852 513.390064 
L 83.794904 427.644684 
L 89.988955 357.353038 
L 96.183007 325.836467 
L 102.377058 319.19697 
L 108.57111 366.042151 
L 114.765161 349.001379 
L 120.959213 342.197347 
L 127.153264 348.848949 
L 133.347316 363.612129 
L 139.541367 360.403365 
L 145.735419 359.236371 
L 151.92947 358.693038 
L 158.123522 343.429852 
L 164.317573 357.694037 
L 170.511625 340.003103 
L 176.705676 346.371235 
L 182.899728 341.034332 
L 189.093779 343.651459 
L 195.28783 378.609459 
L 201.481882 335.526649 
L 207.675933 374.803137 
L 213.869985 389.316933 
L 220.064036 381.695738 
L 226.258088 388.626754 
L 232.452139 369.542862 
L 238.646191 380.267578 
L 244.840242 377.231568 
L 251.034294 412.425964 
L 257.228345 400.6326 
L 263.422397 398.321479 
L 269.616448 402.818829 
L 275.8105 412.956726 
L 282.004551 440.33326 
L 288.198603 413.920615 
L 294.392654 442.78233 
L 300.586706 432.928507 
L 306.780757 406.264556 
L 312.974809 438.809057 
L 319.16886 447.029696 
L 325.362912 439.842963 
L 331.556963 450.82934 
L 337.751015 436.903525 
L 343.945066 450.967334 
L 350.139118 452.292411 
L 356.333169 444.409056 
L 362.527221 452.533277 
L 368.721272 456.180272 
L 374.915324 454.41195 
L 381.109375 462.907787 
L 387.303426 459.164647 
L 393.497478 463.434513 
L 399.691529 468.576897 
L 405.885581 467.209632 
L 412.079632 466.129064 
L 418.273684 473.897503 
L 424.467735 480.126575 
L 430.661787 482.31669 
L 436.855838 480.394269 
L 443.04989 484.110169 
L 449.243941 483.340214 
L 455.437993 478.836993 
L 461.632044 490.834889 
L 467.826096 484.52854 
L 474.020147 488.138343 
L 480.214199 489.06451 
L 486.40825 498.560745 
L 492.602302 476.232135 
L 498.796353 500.462884 
L 504.990405 491.293827 
L 511.184456 494.641973 
L 517.378508 491.919162 
L 523.572559 496.591925 
L 529.766611 498.185568 
L 535.960662 499.690211 
L 542.154714 505.229681 
L 548.348765 500.273315 
L 554.542817 505.23811 
L 560.736868 506.377239 
L 566.93092 514.081837 
L 573.124971 512.132348 
L 579.319022 509.543184 
L 585.513074 510.033107 
L 591.707125 515.747004 
L 597.901177 521.194133 
L 604.095228 504.679305 
L 610.28928 518.093776 
L 616.483331 527.138859 
L 622.677383 511.177471 
L 628.871434 514.901452 
L 635.065486 516.96376 
L 641.259537 515.203396 
L 647.453589 521.623717 
L 653.64764 529.80303 
L 659.841692 521.472169 
L 666.035743 522.20598 
L 672.229795 528.240711 
L 678.423846 529.657116 
L 684.617898 527.651421 
" style="fill:none;stroke:#1f77b4;stroke-linecap:square;stroke-width:1.5;"/>
   </g>
   <g id="patch_13">
    <path d="M 47.25 540.333333 
L 47.25 308.666667 
" style="fill:none;stroke:#000000;stroke-linecap:square;stroke-linejoin:miter;stroke-width:0.8;"/>
   </g>
   <g id="patch_14">
    <path d="M 714.96875 540.333333 
L 714.96875 308.666667 
" style="fill:none;stroke:#000000;stroke-linecap:square;stroke-linejoin:miter;stroke-width:0.8;"/>
   </g>
   <g id="patch_15">
    <path d="M 47.25 540.333333 
L 714.96875 540.333333 
" style="fill:none;stroke:#000000;stroke-linecap:square;stroke-linejoin:miter;stroke-width:0.8;"/>
   </g>
   <g id="patch_16">
    <path d="M 47.25 308.666667 
L 714.96875 308.666667 
" style="fill:none;stroke:#000000;stroke-linecap:square;stroke-linejoin:miter;stroke-width:0.8;"/>
   </g>
   <g id="text_48">
    <!-- K-Means F1-Score -->
    <g transform="translate(327.269688 302.666667)scale(0.12 -0.12)">
     <use xlink:href="#DejaVuSans-4b"/>
     <use x="65.419922" xlink:href="#DejaVuSans-2d"/>
     <use x="101.503906" xlink:href="#DejaVuSans-4d"/>
     <use x="187.783203" xlink:href="#DejaVuSans-65"/>
     <use x="249.306641" xlink:href="#DejaVuSans-61"/>
     <use x="310.585938" xlink:href="#DejaVuSans-6e"/>
     <use x="373.964844" xlink:href="#DejaVuSans-73"/>
     <use x="426.064453" xlink:href="#DejaVuSans-20"/>
     <use x="457.851562" xlink:href="#DejaVuSans-46"/>
     <use x="515.371094" xlink:href="#DejaVuSans-31"/>
     <use x="578.994141" xlink:href="#DejaVuSans-2d"/>
     <use x="615.078125" xlink:href="#DejaVuSans-53"/>
     <use x="678.554688" xlink:href="#DejaVuSans-63"/>
     <use x="733.535156" xlink:href="#DejaVuSans-6f"/>
     <use x="794.716797" xlink:href="#DejaVuSans-72"/>
     <use x="835.798828" xlink:href="#DejaVuSans-65"/>
    </g>
   </g>
  </g>
  <g id="axes_4">
   <g id="patch_17">
    <path d="M 760.34375 540.333333 
L 1428.0625 540.333333 
L 1428.0625 308.666667 
L 760.34375 308.666667 
z
" style="fill:#ffffff;"/>
   </g>
   <g id="matplotlib.axis_7">
    <g id="xtick_19">
     <g id="line2d_43">
      <g>
       <use style="stroke:#000000;stroke-width:0.8;" x="778.306499" xlink:href="#m79581c27c9" y="540.333333"/>
      </g>
     </g>
     <g id="text_49">
      <!-- 0 -->
      <g transform="translate(775.125249 554.931771)scale(0.1 -0.1)">
       <use xlink:href="#DejaVuSans-30"/>
      </g>
     </g>
    </g>
    <g id="xtick_20">
     <g id="line2d_44">
      <g>
       <use style="stroke:#000000;stroke-width:0.8;" x="902.187529" xlink:href="#m79581c27c9" y="540.333333"/>
      </g>
     </g>
     <g id="text_50">
      <!-- 20 -->
      <g transform="translate(895.825029 554.931771)scale(0.1 -0.1)">
       <use xlink:href="#DejaVuSans-32"/>
       <use x="63.623047" xlink:href="#DejaVuSans-30"/>
      </g>
     </g>
    </g>
    <g id="xtick_21">
     <g id="line2d_45">
      <g>
       <use style="stroke:#000000;stroke-width:0.8;" x="1026.068559" xlink:href="#m79581c27c9" y="540.333333"/>
      </g>
     </g>
     <g id="text_51">
      <!-- 40 -->
      <g transform="translate(1019.706059 554.931771)scale(0.1 -0.1)">
       <use xlink:href="#DejaVuSans-34"/>
       <use x="63.623047" xlink:href="#DejaVuSans-30"/>
      </g>
     </g>
    </g>
    <g id="xtick_22">
     <g id="line2d_46">
      <g>
       <use style="stroke:#000000;stroke-width:0.8;" x="1149.949588" xlink:href="#m79581c27c9" y="540.333333"/>
      </g>
     </g>
     <g id="text_52">
      <!-- 60 -->
      <g transform="translate(1143.587088 554.931771)scale(0.1 -0.1)">
       <use xlink:href="#DejaVuSans-36"/>
       <use x="63.623047" xlink:href="#DejaVuSans-30"/>
      </g>
     </g>
    </g>
    <g id="xtick_23">
     <g id="line2d_47">
      <g>
       <use style="stroke:#000000;stroke-width:0.8;" x="1273.830618" xlink:href="#m79581c27c9" y="540.333333"/>
      </g>
     </g>
     <g id="text_53">
      <!-- 80 -->
      <g transform="translate(1267.468118 554.931771)scale(0.1 -0.1)">
       <use xlink:href="#DejaVuSans-38"/>
       <use x="63.623047" xlink:href="#DejaVuSans-30"/>
      </g>
     </g>
    </g>
    <g id="xtick_24">
     <g id="line2d_48">
      <g>
       <use style="stroke:#000000;stroke-width:0.8;" x="1397.711648" xlink:href="#m79581c27c9" y="540.333333"/>
      </g>
     </g>
     <g id="text_54">
      <!-- 100 -->
      <g transform="translate(1388.167898 554.931771)scale(0.1 -0.1)">
       <use xlink:href="#DejaVuSans-31"/>
       <use x="63.623047" xlink:href="#DejaVuSans-30"/>
       <use x="127.246094" xlink:href="#DejaVuSans-30"/>
      </g>
     </g>
    </g>
    <g id="text_55">
     <!-- Number of clusters -->
     <g transform="translate(1046.510937 568.609896)scale(0.1 -0.1)">
      <use xlink:href="#DejaVuSans-4e"/>
      <use x="74.804688" xlink:href="#DejaVuSans-75"/>
      <use x="138.183594" xlink:href="#DejaVuSans-6d"/>
      <use x="235.595703" xlink:href="#DejaVuSans-62"/>
      <use x="299.072266" xlink:href="#DejaVuSans-65"/>
      <use x="360.595703" xlink:href="#DejaVuSans-72"/>
      <use x="401.708984" xlink:href="#DejaVuSans-20"/>
      <use x="433.496094" xlink:href="#DejaVuSans-6f"/>
      <use x="494.677734" xlink:href="#DejaVuSans-66"/>
      <use x="529.882812" xlink:href="#DejaVuSans-20"/>
      <use x="561.669922" xlink:href="#DejaVuSans-63"/>
      <use x="616.650391" xlink:href="#DejaVuSans-6c"/>
      <use x="644.433594" xlink:href="#DejaVuSans-75"/>
      <use x="707.8125" xlink:href="#DejaVuSans-73"/>
      <use x="759.912109" xlink:href="#DejaVuSans-74"/>
      <use x="799.121094" xlink:href="#DejaVuSans-65"/>
      <use x="860.644531" xlink:href="#DejaVuSans-72"/>
      <use x="901.757812" xlink:href="#DejaVuSans-73"/>
     </g>
    </g>
   </g>
   <g id="matplotlib.axis_8">
    <g id="ytick_22">
     <g id="line2d_49">
      <g>
       <use style="stroke:#000000;stroke-width:0.8;" x="760.34375" xlink:href="#ma14b09d008" y="500.73989"/>
      </g>
     </g>
     <g id="text_56">
      <!-- 0.0 -->
      <g transform="translate(737.440625 504.539109)scale(0.1 -0.1)">
       <use xlink:href="#DejaVuSans-30"/>
       <use x="63.623047" xlink:href="#DejaVuSans-2e"/>
       <use x="95.410156" xlink:href="#DejaVuSans-30"/>
      </g>
     </g>
    </g>
    <g id="ytick_23">
     <g id="line2d_50">
      <g>
       <use style="stroke:#000000;stroke-width:0.8;" x="760.34375" xlink:href="#ma14b09d008" y="456.340984"/>
      </g>
     </g>
     <g id="text_57">
      <!-- 0.2 -->
      <g transform="translate(737.440625 460.140202)scale(0.1 -0.1)">
       <use xlink:href="#DejaVuSans-30"/>
       <use x="63.623047" xlink:href="#DejaVuSans-2e"/>
       <use x="95.410156" xlink:href="#DejaVuSans-32"/>
      </g>
     </g>
    </g>
    <g id="ytick_24">
     <g id="line2d_51">
      <g>
       <use style="stroke:#000000;stroke-width:0.8;" x="760.34375" xlink:href="#ma14b09d008" y="411.942077"/>
      </g>
     </g>
     <g id="text_58">
      <!-- 0.4 -->
      <g transform="translate(737.440625 415.741296)scale(0.1 -0.1)">
       <use xlink:href="#DejaVuSans-30"/>
       <use x="63.623047" xlink:href="#DejaVuSans-2e"/>
       <use x="95.410156" xlink:href="#DejaVuSans-34"/>
      </g>
     </g>
    </g>
    <g id="ytick_25">
     <g id="line2d_52">
      <g>
       <use style="stroke:#000000;stroke-width:0.8;" x="760.34375" xlink:href="#ma14b09d008" y="367.543171"/>
      </g>
     </g>
     <g id="text_59">
      <!-- 0.6 -->
      <g transform="translate(737.440625 371.34239)scale(0.1 -0.1)">
       <use xlink:href="#DejaVuSans-30"/>
       <use x="63.623047" xlink:href="#DejaVuSans-2e"/>
       <use x="95.410156" xlink:href="#DejaVuSans-36"/>
      </g>
     </g>
    </g>
    <g id="ytick_26">
     <g id="line2d_53">
      <g>
       <use style="stroke:#000000;stroke-width:0.8;" x="760.34375" xlink:href="#ma14b09d008" y="323.144265"/>
      </g>
     </g>
     <g id="text_60">
      <!-- 0.8 -->
      <g transform="translate(737.440625 326.943484)scale(0.1 -0.1)">
       <use xlink:href="#DejaVuSans-30"/>
       <use x="63.623047" xlink:href="#DejaVuSans-2e"/>
       <use x="95.410156" xlink:href="#DejaVuSans-38"/>
      </g>
     </g>
    </g>
    <g id="text_61">
     <!-- Rand Index -->
     <defs>
      <path d="M 45.40625 46.390625 
L 45.40625 75.984375 
L 54.390625 75.984375 
L 54.390625 0 
L 45.40625 0 
L 45.40625 8.203125 
Q 42.578125 3.328125 38.25 0.953125 
Q 33.9375 -1.421875 27.875 -1.421875 
Q 17.96875 -1.421875 11.734375 6.484375 
Q 5.515625 14.40625 5.515625 27.296875 
Q 5.515625 40.1875 11.734375 48.09375 
Q 17.96875 56 27.875 56 
Q 33.9375 56 38.25 53.625 
Q 42.578125 51.265625 45.40625 46.390625 
z
M 14.796875 27.296875 
Q 14.796875 17.390625 18.875 11.75 
Q 22.953125 6.109375 30.078125 6.109375 
Q 37.203125 6.109375 41.296875 11.75 
Q 45.40625 17.390625 45.40625 27.296875 
Q 45.40625 37.203125 41.296875 42.84375 
Q 37.203125 48.484375 30.078125 48.484375 
Q 22.953125 48.484375 18.875 42.84375 
Q 14.796875 37.203125 14.796875 27.296875 
z
" id="DejaVuSans-64"/>
      <path d="M 9.8125 72.90625 
L 19.671875 72.90625 
L 19.671875 0 
L 9.8125 0 
z
" id="DejaVuSans-49"/>
      <path d="M 54.890625 54.6875 
L 35.109375 28.078125 
L 55.90625 0 
L 45.3125 0 
L 29.390625 21.484375 
L 13.484375 0 
L 2.875 0 
L 24.125 28.609375 
L 4.6875 54.6875 
L 15.28125 54.6875 
L 29.78125 35.203125 
L 44.28125 54.6875 
z
" id="DejaVuSans-78"/>
     </defs>
     <g transform="translate(731.360937 452.821875)rotate(-90)scale(0.1 -0.1)">
      <use xlink:href="#DejaVuSans-52"/>
      <use x="69.451172" xlink:href="#DejaVuSans-61"/>
      <use x="130.730469" xlink:href="#DejaVuSans-6e"/>
      <use x="194.109375" xlink:href="#DejaVuSans-64"/>
      <use x="257.585938" xlink:href="#DejaVuSans-20"/>
      <use x="289.373047" xlink:href="#DejaVuSans-49"/>
      <use x="318.865234" xlink:href="#DejaVuSans-6e"/>
      <use x="382.244141" xlink:href="#DejaVuSans-64"/>
      <use x="445.720703" xlink:href="#DejaVuSans-65"/>
      <use x="507.228516" xlink:href="#DejaVuSans-78"/>
     </g>
    </g>
   </g>
   <g id="line2d_54">
    <path clip-path="url(#p7ed233bd63)" d="M 790.694602 529.80303 
L 796.888654 417.057734 
L 803.082705 371.837384 
L 809.276757 356.742921 
L 815.470808 349.53155 
L 821.66486 350.501538 
L 827.858911 341.741276 
L 834.052963 340.000322 
L 840.247014 337.137415 
L 846.441066 334.965394 
L 852.635117 333.563396 
L 858.829169 331.927997 
L 865.02322 331.543634 
L 871.217272 325.907572 
L 877.411323 327.797837 
L 883.605375 322.571082 
L 889.799426 322.509105 
L 895.993478 322.173628 
L 902.187529 321.652751 
L 908.38158 324.034291 
L 914.575632 319.285837 
L 920.769683 322.691616 
L 926.963735 323.224287 
L 933.157786 322.164724 
L 939.351838 322.147505 
L 945.545889 320.053972 
L 951.739941 320.381842 
L 957.933992 319.455079 
L 964.128044 321.018064 
L 970.322095 320.373351 
L 976.516147 320.00721 
L 982.710198 320.106337 
L 988.90425 320.495359 
L 995.098301 320.918346 
L 1001.292353 320.428251 
L 1007.486404 320.836733 
L 1013.680456 320.552972 
L 1019.874507 319.19697 
L 1026.068559 320.047368 
L 1032.26261 320.422708 
L 1038.456662 320.011809 
L 1044.650713 320.23436 
L 1050.844765 319.966816 
L 1057.038816 320.371582 
L 1063.232868 320.537816 
L 1069.426919 319.727105 
L 1075.620971 320.141896 
L 1081.815022 319.917812 
L 1088.009074 319.99005 
L 1094.203125 320.021126 
L 1100.397176 320.416811 
L 1106.591228 320.160707 
L 1112.785279 319.914333 
L 1118.979331 319.851353 
L 1125.173382 319.573961 
L 1131.367434 320.258596 
L 1137.561485 320.386029 
L 1143.755537 320.441284 
L 1149.949588 319.848995 
L 1156.14364 320.318332 
L 1162.337691 319.992172 
L 1168.531743 319.624321 
L 1174.725794 320.020006 
L 1180.919846 320.282656 
L 1187.113897 320.073904 
L 1193.307949 319.788374 
L 1199.502 320.407494 
L 1205.696052 319.669079 
L 1211.890103 319.979671 
L 1218.084155 319.774044 
L 1224.278206 320.231706 
L 1230.472258 319.71307 
L 1236.666309 319.839324 
L 1242.860361 320.101089 
L 1249.054412 319.994531 
L 1255.248464 320.426895 
L 1261.442515 320.017765 
L 1267.636567 320.30931 
L 1273.830618 320.207706 
L 1280.02467 320.305477 
L 1286.218721 320.091064 
L 1292.412772 320.102563 
L 1298.606824 320.110111 
L 1304.800875 320.130633 
L 1310.994927 320.47584 
L 1317.188978 319.917694 
L 1323.38303 320.203637 
L 1329.577081 320.587351 
L 1335.771133 319.969292 
L 1341.965184 320.246625 
L 1348.159236 319.836434 
L 1354.353287 319.921999 
L 1360.547339 320.147852 
L 1366.74139 320.203401 
L 1372.935442 320.127389 
L 1379.129493 320.089354 
L 1385.323545 320.514818 
L 1391.517596 320.357665 
L 1397.711648 320.283776 
" style="fill:none;stroke:#1f77b4;stroke-linecap:square;stroke-width:1.5;"/>
   </g>
   <g id="patch_18">
    <path d="M 760.34375 540.333333 
L 760.34375 308.666667 
" style="fill:none;stroke:#000000;stroke-linecap:square;stroke-linejoin:miter;stroke-width:0.8;"/>
   </g>
   <g id="patch_19">
    <path d="M 1428.0625 540.333333 
L 1428.0625 308.666667 
" style="fill:none;stroke:#000000;stroke-linecap:square;stroke-linejoin:miter;stroke-width:0.8;"/>
   </g>
   <g id="patch_20">
    <path d="M 760.34375 540.333333 
L 1428.0625 540.333333 
" style="fill:none;stroke:#000000;stroke-linecap:square;stroke-linejoin:miter;stroke-width:0.8;"/>
   </g>
   <g id="patch_21">
    <path d="M 760.34375 308.666667 
L 1428.0625 308.666667 
" style="fill:none;stroke:#000000;stroke-linecap:square;stroke-linejoin:miter;stroke-width:0.8;"/>
   </g>
   <g id="text_62">
    <!-- K-Means Rand Index -->
    <g transform="translate(1032.74625 302.666667)scale(0.12 -0.12)">
     <use xlink:href="#DejaVuSans-4b"/>
     <use x="65.419922" xlink:href="#DejaVuSans-2d"/>
     <use x="101.503906" xlink:href="#DejaVuSans-4d"/>
     <use x="187.783203" xlink:href="#DejaVuSans-65"/>
     <use x="249.306641" xlink:href="#DejaVuSans-61"/>
     <use x="310.585938" xlink:href="#DejaVuSans-6e"/>
     <use x="373.964844" xlink:href="#DejaVuSans-73"/>
     <use x="426.064453" xlink:href="#DejaVuSans-20"/>
     <use x="457.851562" xlink:href="#DejaVuSans-52"/>
     <use x="527.302734" xlink:href="#DejaVuSans-61"/>
     <use x="588.582031" xlink:href="#DejaVuSans-6e"/>
     <use x="651.960938" xlink:href="#DejaVuSans-64"/>
     <use x="715.4375" xlink:href="#DejaVuSans-20"/>
     <use x="747.224609" xlink:href="#DejaVuSans-49"/>
     <use x="776.716797" xlink:href="#DejaVuSans-6e"/>
     <use x="840.095703" xlink:href="#DejaVuSans-64"/>
     <use x="903.572266" xlink:href="#DejaVuSans-65"/>
     <use x="965.080078" xlink:href="#DejaVuSans-78"/>
    </g>
   </g>
  </g>
  <g id="axes_5">
   <g id="patch_22">
    <path d="M 47.25 829 
L 714.96875 829 
L 714.96875 597.333333 
L 47.25 597.333333 
z
" style="fill:#ffffff;"/>
   </g>
   <g id="matplotlib.axis_9">
    <g id="xtick_25">
     <g id="line2d_55">
      <g>
       <use style="stroke:#000000;stroke-width:0.8;" x="65.212749" xlink:href="#m79581c27c9" y="829"/>
      </g>
     </g>
     <g id="text_63">
      <!-- 0 -->
      <g transform="translate(62.031499 843.598437)scale(0.1 -0.1)">
       <use xlink:href="#DejaVuSans-30"/>
      </g>
     </g>
    </g>
    <g id="xtick_26">
     <g id="line2d_56">
      <g>
       <use style="stroke:#000000;stroke-width:0.8;" x="189.093779" xlink:href="#m79581c27c9" y="829"/>
      </g>
     </g>
     <g id="text_64">
      <!-- 20 -->
      <g transform="translate(182.731279 843.598437)scale(0.1 -0.1)">
       <use xlink:href="#DejaVuSans-32"/>
       <use x="63.623047" xlink:href="#DejaVuSans-30"/>
      </g>
     </g>
    </g>
    <g id="xtick_27">
     <g id="line2d_57">
      <g>
       <use style="stroke:#000000;stroke-width:0.8;" x="312.974809" xlink:href="#m79581c27c9" y="829"/>
      </g>
     </g>
     <g id="text_65">
      <!-- 40 -->
      <g transform="translate(306.612309 843.598437)scale(0.1 -0.1)">
       <use xlink:href="#DejaVuSans-34"/>
       <use x="63.623047" xlink:href="#DejaVuSans-30"/>
      </g>
     </g>
    </g>
    <g id="xtick_28">
     <g id="line2d_58">
      <g>
       <use style="stroke:#000000;stroke-width:0.8;" x="436.855838" xlink:href="#m79581c27c9" y="829"/>
      </g>
     </g>
     <g id="text_66">
      <!-- 60 -->
      <g transform="translate(430.493338 843.598437)scale(0.1 -0.1)">
       <use xlink:href="#DejaVuSans-36"/>
       <use x="63.623047" xlink:href="#DejaVuSans-30"/>
      </g>
     </g>
    </g>
    <g id="xtick_29">
     <g id="line2d_59">
      <g>
       <use style="stroke:#000000;stroke-width:0.8;" x="560.736868" xlink:href="#m79581c27c9" y="829"/>
      </g>
     </g>
     <g id="text_67">
      <!-- 80 -->
      <g transform="translate(554.374368 843.598437)scale(0.1 -0.1)">
       <use xlink:href="#DejaVuSans-38"/>
       <use x="63.623047" xlink:href="#DejaVuSans-30"/>
      </g>
     </g>
    </g>
    <g id="xtick_30">
     <g id="line2d_60">
      <g>
       <use style="stroke:#000000;stroke-width:0.8;" x="684.617898" xlink:href="#m79581c27c9" y="829"/>
      </g>
     </g>
     <g id="text_68">
      <!-- 100 -->
      <g transform="translate(675.074148 843.598437)scale(0.1 -0.1)">
       <use xlink:href="#DejaVuSans-31"/>
       <use x="63.623047" xlink:href="#DejaVuSans-30"/>
       <use x="127.246094" xlink:href="#DejaVuSans-30"/>
      </g>
     </g>
    </g>
    <g id="text_69">
     <!-- Number of clusters -->
     <g transform="translate(333.417188 857.276562)scale(0.1 -0.1)">
      <use xlink:href="#DejaVuSans-4e"/>
      <use x="74.804688" xlink:href="#DejaVuSans-75"/>
      <use x="138.183594" xlink:href="#DejaVuSans-6d"/>
      <use x="235.595703" xlink:href="#DejaVuSans-62"/>
      <use x="299.072266" xlink:href="#DejaVuSans-65"/>
      <use x="360.595703" xlink:href="#DejaVuSans-72"/>
      <use x="401.708984" xlink:href="#DejaVuSans-20"/>
      <use x="433.496094" xlink:href="#DejaVuSans-6f"/>
      <use x="494.677734" xlink:href="#DejaVuSans-66"/>
      <use x="529.882812" xlink:href="#DejaVuSans-20"/>
      <use x="561.669922" xlink:href="#DejaVuSans-63"/>
      <use x="616.650391" xlink:href="#DejaVuSans-6c"/>
      <use x="644.433594" xlink:href="#DejaVuSans-75"/>
      <use x="707.8125" xlink:href="#DejaVuSans-73"/>
      <use x="759.912109" xlink:href="#DejaVuSans-74"/>
      <use x="799.121094" xlink:href="#DejaVuSans-65"/>
      <use x="860.644531" xlink:href="#DejaVuSans-72"/>
      <use x="901.757812" xlink:href="#DejaVuSans-73"/>
     </g>
    </g>
   </g>
   <g id="matplotlib.axis_10">
    <g id="ytick_27">
     <g id="line2d_61">
      <g>
       <use style="stroke:#000000;stroke-width:0.8;" x="47.25" xlink:href="#ma14b09d008" y="822.267093"/>
      </g>
     </g>
     <g id="text_70">
      <!-- 0.05 -->
      <g transform="translate(17.984375 826.066312)scale(0.1 -0.1)">
       <use xlink:href="#DejaVuSans-30"/>
       <use x="63.623047" xlink:href="#DejaVuSans-2e"/>
       <use x="95.410156" xlink:href="#DejaVuSans-30"/>
       <use x="159.033203" xlink:href="#DejaVuSans-35"/>
      </g>
     </g>
    </g>
    <g id="ytick_28">
     <g id="line2d_62">
      <g>
       <use style="stroke:#000000;stroke-width:0.8;" x="47.25" xlink:href="#ma14b09d008" y="790.755094"/>
      </g>
     </g>
     <g id="text_71">
      <!-- 0.10 -->
      <g transform="translate(17.984375 794.554313)scale(0.1 -0.1)">
       <use xlink:href="#DejaVuSans-30"/>
       <use x="63.623047" xlink:href="#DejaVuSans-2e"/>
       <use x="95.410156" xlink:href="#DejaVuSans-31"/>
       <use x="159.033203" xlink:href="#DejaVuSans-30"/>
      </g>
     </g>
    </g>
    <g id="ytick_29">
     <g id="line2d_63">
      <g>
       <use style="stroke:#000000;stroke-width:0.8;" x="47.25" xlink:href="#ma14b09d008" y="759.243095"/>
      </g>
     </g>
     <g id="text_72">
      <!-- 0.15 -->
      <g transform="translate(17.984375 763.042314)scale(0.1 -0.1)">
       <use xlink:href="#DejaVuSans-30"/>
       <use x="63.623047" xlink:href="#DejaVuSans-2e"/>
       <use x="95.410156" xlink:href="#DejaVuSans-31"/>
       <use x="159.033203" xlink:href="#DejaVuSans-35"/>
      </g>
     </g>
    </g>
    <g id="ytick_30">
     <g id="line2d_64">
      <g>
       <use style="stroke:#000000;stroke-width:0.8;" x="47.25" xlink:href="#ma14b09d008" y="727.731096"/>
      </g>
     </g>
     <g id="text_73">
      <!-- 0.20 -->
      <g transform="translate(17.984375 731.530315)scale(0.1 -0.1)">
       <use xlink:href="#DejaVuSans-30"/>
       <use x="63.623047" xlink:href="#DejaVuSans-2e"/>
       <use x="95.410156" xlink:href="#DejaVuSans-32"/>
       <use x="159.033203" xlink:href="#DejaVuSans-30"/>
      </g>
     </g>
    </g>
    <g id="ytick_31">
     <g id="line2d_65">
      <g>
       <use style="stroke:#000000;stroke-width:0.8;" x="47.25" xlink:href="#ma14b09d008" y="696.219097"/>
      </g>
     </g>
     <g id="text_74">
      <!-- 0.25 -->
      <g transform="translate(17.984375 700.018315)scale(0.1 -0.1)">
       <use xlink:href="#DejaVuSans-30"/>
       <use x="63.623047" xlink:href="#DejaVuSans-2e"/>
       <use x="95.410156" xlink:href="#DejaVuSans-32"/>
       <use x="159.033203" xlink:href="#DejaVuSans-35"/>
      </g>
     </g>
    </g>
    <g id="ytick_32">
     <g id="line2d_66">
      <g>
       <use style="stroke:#000000;stroke-width:0.8;" x="47.25" xlink:href="#ma14b09d008" y="664.707098"/>
      </g>
     </g>
     <g id="text_75">
      <!-- 0.30 -->
      <g transform="translate(17.984375 668.506316)scale(0.1 -0.1)">
       <use xlink:href="#DejaVuSans-30"/>
       <use x="63.623047" xlink:href="#DejaVuSans-2e"/>
       <use x="95.410156" xlink:href="#DejaVuSans-33"/>
       <use x="159.033203" xlink:href="#DejaVuSans-30"/>
      </g>
     </g>
    </g>
    <g id="ytick_33">
     <g id="line2d_67">
      <g>
       <use style="stroke:#000000;stroke-width:0.8;" x="47.25" xlink:href="#ma14b09d008" y="633.195098"/>
      </g>
     </g>
     <g id="text_76">
      <!-- 0.35 -->
      <g transform="translate(17.984375 636.994317)scale(0.1 -0.1)">
       <use xlink:href="#DejaVuSans-30"/>
       <use x="63.623047" xlink:href="#DejaVuSans-2e"/>
       <use x="95.410156" xlink:href="#DejaVuSans-33"/>
       <use x="159.033203" xlink:href="#DejaVuSans-35"/>
      </g>
     </g>
    </g>
    <g id="ytick_34">
     <g id="line2d_68">
      <g>
       <use style="stroke:#000000;stroke-width:0.8;" x="47.25" xlink:href="#ma14b09d008" y="601.683099"/>
      </g>
     </g>
     <g id="text_77">
      <!-- 0.40 -->
      <g transform="translate(17.984375 605.482318)scale(0.1 -0.1)">
       <use xlink:href="#DejaVuSans-30"/>
       <use x="63.623047" xlink:href="#DejaVuSans-2e"/>
       <use x="95.410156" xlink:href="#DejaVuSans-34"/>
       <use x="159.033203" xlink:href="#DejaVuSans-30"/>
      </g>
     </g>
    </g>
    <g id="text_78">
     <!-- Adjusted Rand Index -->
     <defs>
      <path d="M 34.1875 63.1875 
L 20.796875 26.90625 
L 47.609375 26.90625 
z
M 28.609375 72.90625 
L 39.796875 72.90625 
L 67.578125 0 
L 57.328125 0 
L 50.6875 18.703125 
L 17.828125 18.703125 
L 11.1875 0 
L 0.78125 0 
z
" id="DejaVuSans-41"/>
      <path d="M 9.421875 54.6875 
L 18.40625 54.6875 
L 18.40625 -0.984375 
Q 18.40625 -11.421875 14.421875 -16.109375 
Q 10.453125 -20.796875 1.609375 -20.796875 
L -1.8125 -20.796875 
L -1.8125 -13.1875 
L 0.59375 -13.1875 
Q 5.71875 -13.1875 7.5625 -10.8125 
Q 9.421875 -8.453125 9.421875 -0.984375 
z
M 9.421875 75.984375 
L 18.40625 75.984375 
L 18.40625 64.59375 
L 9.421875 64.59375 
z
" id="DejaVuSans-6a"/>
     </defs>
     <g transform="translate(11.904687 765.044792)rotate(-90)scale(0.1 -0.1)">
      <use xlink:href="#DejaVuSans-41"/>
      <use x="68.392578" xlink:href="#DejaVuSans-64"/>
      <use x="131.869141" xlink:href="#DejaVuSans-6a"/>
      <use x="159.652344" xlink:href="#DejaVuSans-75"/>
      <use x="223.03125" xlink:href="#DejaVuSans-73"/>
      <use x="275.130859" xlink:href="#DejaVuSans-74"/>
      <use x="314.339844" xlink:href="#DejaVuSans-65"/>
      <use x="375.863281" xlink:href="#DejaVuSans-64"/>
      <use x="439.339844" xlink:href="#DejaVuSans-20"/>
      <use x="471.126953" xlink:href="#DejaVuSans-52"/>
      <use x="540.578125" xlink:href="#DejaVuSans-61"/>
      <use x="601.857422" xlink:href="#DejaVuSans-6e"/>
      <use x="665.236328" xlink:href="#DejaVuSans-64"/>
      <use x="728.712891" xlink:href="#DejaVuSans-20"/>
      <use x="760.5" xlink:href="#DejaVuSans-49"/>
      <use x="789.992188" xlink:href="#DejaVuSans-6e"/>
      <use x="853.371094" xlink:href="#DejaVuSans-64"/>
      <use x="916.847656" xlink:href="#DejaVuSans-65"/>
      <use x="978.355469" xlink:href="#DejaVuSans-78"/>
     </g>
    </g>
   </g>
   <g id="line2d_69">
    <path clip-path="url(#p935721767e)" d="M 77.600852 818.469697 
L 83.794904 728.879985 
L 89.988955 657.953223 
L 96.183007 626.503174 
L 102.377058 618.08893 
L 108.57111 656.543536 
L 114.765161 637.986577 
L 120.959213 631.521194 
L 127.153264 634.82893 
L 133.347316 644.632225 
L 139.541367 641.030537 
L 145.735419 638.754674 
L 151.92947 638.005865 
L 158.123522 621.197661 
L 164.317573 633.751057 
L 170.511625 615.082574 
L 176.705676 619.677026 
L 182.899728 615.382278 
L 189.093779 616.680381 
L 195.28783 644.983577 
L 201.481882 607.863636 
L 207.675933 640.543233 
L 213.869985 651.674916 
L 220.064036 644.803668 
L 226.258088 649.731959 
L 232.452139 633.243342 
L 238.646191 641.315491 
L 244.840242 637.823621 
L 251.034294 664.878441 
L 257.228345 655.638102 
L 263.422397 653.457819 
L 269.616448 656.752398 
L 275.8105 664.4278 
L 282.004551 684.052318 
L 288.198603 664.991122 
L 294.392654 685.594622 
L 300.586706 678.341457 
L 306.780757 657.690343 
L 312.974809 681.506043 
L 319.16886 687.779331 
L 325.362912 682.149918 
L 331.556963 690.031058 
L 337.751015 680.062655 
L 343.945066 690.371303 
L 350.139118 691.570525 
L 356.333169 684.753257 
L 362.527221 691.021269 
L 368.721272 693.080794 
L 374.915324 692.017519 
L 381.109375 697.815482 
L 387.303426 696.019611 
L 393.497478 698.432584 
L 399.691529 701.426753 
L 405.885581 700.387839 
L 412.079632 699.128966 
L 418.273684 705.659738 
L 424.467735 710.082569 
L 430.661787 711.656334 
L 436.855838 709.205693 
L 443.04989 712.614202 
L 449.243941 711.454233 
L 455.437993 707.720253 
L 461.632044 716.494786 
L 467.826096 712.823146 
L 474.020147 714.812103 
L 480.214199 714.848636 
L 486.40825 722.409423 
L 492.602302 706.072745 
L 498.796353 722.784596 
L 504.990405 716.29669 
L 511.184456 719.451773 
L 517.378508 716.58515 
L 523.572559 719.936076 
L 529.766611 721.531833 
L 535.960662 722.305436 
L 542.154714 726.863696 
L 548.348765 722.738883 
L 554.542817 726.624539 
L 560.736868 727.163248 
L 566.93092 732.440269 
L 573.124971 730.701485 
L 579.319022 729.025111 
L 585.513074 729.363236 
L 591.707125 733.157452 
L 597.901177 737.472672 
L 604.095228 725.433417 
L 610.28928 734.852807 
L 616.483331 741.606108 
L 622.677383 729.81361 
L 628.871434 732.852512 
L 635.065486 733.313625 
L 641.259537 732.349407 
L 647.453589 737.040386 
L 653.64764 742.496583 
L 659.841692 736.896544 
L 666.035743 737.292278 
L 672.229795 742.167323 
L 678.423846 742.744645 
L 684.617898 741.273661 
" style="fill:none;stroke:#1f77b4;stroke-linecap:square;stroke-width:1.5;"/>
   </g>
   <g id="patch_23">
    <path d="M 47.25 829 
L 47.25 597.333333 
" style="fill:none;stroke:#000000;stroke-linecap:square;stroke-linejoin:miter;stroke-width:0.8;"/>
   </g>
   <g id="patch_24">
    <path d="M 714.96875 829 
L 714.96875 597.333333 
" style="fill:none;stroke:#000000;stroke-linecap:square;stroke-linejoin:miter;stroke-width:0.8;"/>
   </g>
   <g id="patch_25">
    <path d="M 47.25 829 
L 714.96875 829 
" style="fill:none;stroke:#000000;stroke-linecap:square;stroke-linejoin:miter;stroke-width:0.8;"/>
   </g>
   <g id="patch_26">
    <path d="M 47.25 597.333333 
L 714.96875 597.333333 
" style="fill:none;stroke:#000000;stroke-linecap:square;stroke-linejoin:miter;stroke-width:0.8;"/>
   </g>
   <g id="text_79">
    <!-- K-Means Adjusted Rand Index -->
    <g transform="translate(291.385 591.333333)scale(0.12 -0.12)">
     <use xlink:href="#DejaVuSans-4b"/>
     <use x="65.419922" xlink:href="#DejaVuSans-2d"/>
     <use x="101.503906" xlink:href="#DejaVuSans-4d"/>
     <use x="187.783203" xlink:href="#DejaVuSans-65"/>
     <use x="249.306641" xlink:href="#DejaVuSans-61"/>
     <use x="310.585938" xlink:href="#DejaVuSans-6e"/>
     <use x="373.964844" xlink:href="#DejaVuSans-73"/>
     <use x="426.064453" xlink:href="#DejaVuSans-20"/>
     <use x="457.851562" xlink:href="#DejaVuSans-41"/>
     <use x="526.244141" xlink:href="#DejaVuSans-64"/>
     <use x="589.720703" xlink:href="#DejaVuSans-6a"/>
     <use x="617.503906" xlink:href="#DejaVuSans-75"/>
     <use x="680.882812" xlink:href="#DejaVuSans-73"/>
     <use x="732.982422" xlink:href="#DejaVuSans-74"/>
     <use x="772.191406" xlink:href="#DejaVuSans-65"/>
     <use x="833.714844" xlink:href="#DejaVuSans-64"/>
     <use x="897.191406" xlink:href="#DejaVuSans-20"/>
     <use x="928.978516" xlink:href="#DejaVuSans-52"/>
     <use x="998.429688" xlink:href="#DejaVuSans-61"/>
     <use x="1059.708984" xlink:href="#DejaVuSans-6e"/>
     <use x="1123.087891" xlink:href="#DejaVuSans-64"/>
     <use x="1186.564453" xlink:href="#DejaVuSans-20"/>
     <use x="1218.351562" xlink:href="#DejaVuSans-49"/>
     <use x="1247.84375" xlink:href="#DejaVuSans-6e"/>
     <use x="1311.222656" xlink:href="#DejaVuSans-64"/>
     <use x="1374.699219" xlink:href="#DejaVuSans-65"/>
     <use x="1436.207031" xlink:href="#DejaVuSans-78"/>
    </g>
   </g>
  </g>
  <g id="axes_6">
   <g id="patch_27">
    <path d="M 760.34375 829 
L 1428.0625 829 
L 1428.0625 597.333333 
L 760.34375 597.333333 
z
" style="fill:#ffffff;"/>
   </g>
   <g id="matplotlib.axis_11">
    <g id="xtick_31">
     <g id="line2d_70">
      <g>
       <use style="stroke:#000000;stroke-width:0.8;" x="778.306499" xlink:href="#m79581c27c9" y="829"/>
      </g>
     </g>
     <g id="text_80">
      <!-- 0 -->
      <g transform="translate(775.125249 843.598437)scale(0.1 -0.1)">
       <use xlink:href="#DejaVuSans-30"/>
      </g>
     </g>
    </g>
    <g id="xtick_32">
     <g id="line2d_71">
      <g>
       <use style="stroke:#000000;stroke-width:0.8;" x="902.187529" xlink:href="#m79581c27c9" y="829"/>
      </g>
     </g>
     <g id="text_81">
      <!-- 20 -->
      <g transform="translate(895.825029 843.598437)scale(0.1 -0.1)">
       <use xlink:href="#DejaVuSans-32"/>
       <use x="63.623047" xlink:href="#DejaVuSans-30"/>
      </g>
     </g>
    </g>
    <g id="xtick_33">
     <g id="line2d_72">
      <g>
       <use style="stroke:#000000;stroke-width:0.8;" x="1026.068559" xlink:href="#m79581c27c9" y="829"/>
      </g>
     </g>
     <g id="text_82">
      <!-- 40 -->
      <g transform="translate(1019.706059 843.598437)scale(0.1 -0.1)">
       <use xlink:href="#DejaVuSans-34"/>
       <use x="63.623047" xlink:href="#DejaVuSans-30"/>
      </g>
     </g>
    </g>
    <g id="xtick_34">
     <g id="line2d_73">
      <g>
       <use style="stroke:#000000;stroke-width:0.8;" x="1149.949588" xlink:href="#m79581c27c9" y="829"/>
      </g>
     </g>
     <g id="text_83">
      <!-- 60 -->
      <g transform="translate(1143.587088 843.598437)scale(0.1 -0.1)">
       <use xlink:href="#DejaVuSans-36"/>
       <use x="63.623047" xlink:href="#DejaVuSans-30"/>
      </g>
     </g>
    </g>
    <g id="xtick_35">
     <g id="line2d_74">
      <g>
       <use style="stroke:#000000;stroke-width:0.8;" x="1273.830618" xlink:href="#m79581c27c9" y="829"/>
      </g>
     </g>
     <g id="text_84">
      <!-- 80 -->
      <g transform="translate(1267.468118 843.598437)scale(0.1 -0.1)">
       <use xlink:href="#DejaVuSans-38"/>
       <use x="63.623047" xlink:href="#DejaVuSans-30"/>
      </g>
     </g>
    </g>
    <g id="xtick_36">
     <g id="line2d_75">
      <g>
       <use style="stroke:#000000;stroke-width:0.8;" x="1397.711648" xlink:href="#m79581c27c9" y="829"/>
      </g>
     </g>
     <g id="text_85">
      <!-- 100 -->
      <g transform="translate(1388.167898 843.598437)scale(0.1 -0.1)">
       <use xlink:href="#DejaVuSans-31"/>
       <use x="63.623047" xlink:href="#DejaVuSans-30"/>
       <use x="127.246094" xlink:href="#DejaVuSans-30"/>
      </g>
     </g>
    </g>
    <g id="text_86">
     <!-- Number of clusters -->
     <g transform="translate(1046.510937 857.276562)scale(0.1 -0.1)">
      <use xlink:href="#DejaVuSans-4e"/>
      <use x="74.804688" xlink:href="#DejaVuSans-75"/>
      <use x="138.183594" xlink:href="#DejaVuSans-6d"/>
      <use x="235.595703" xlink:href="#DejaVuSans-62"/>
      <use x="299.072266" xlink:href="#DejaVuSans-65"/>
      <use x="360.595703" xlink:href="#DejaVuSans-72"/>
      <use x="401.708984" xlink:href="#DejaVuSans-20"/>
      <use x="433.496094" xlink:href="#DejaVuSans-6f"/>
      <use x="494.677734" xlink:href="#DejaVuSans-66"/>
      <use x="529.882812" xlink:href="#DejaVuSans-20"/>
      <use x="561.669922" xlink:href="#DejaVuSans-63"/>
      <use x="616.650391" xlink:href="#DejaVuSans-6c"/>
      <use x="644.433594" xlink:href="#DejaVuSans-75"/>
      <use x="707.8125" xlink:href="#DejaVuSans-73"/>
      <use x="759.912109" xlink:href="#DejaVuSans-74"/>
      <use x="799.121094" xlink:href="#DejaVuSans-65"/>
      <use x="860.644531" xlink:href="#DejaVuSans-72"/>
      <use x="901.757812" xlink:href="#DejaVuSans-73"/>
     </g>
    </g>
   </g>
   <g id="matplotlib.axis_12">
    <g id="ytick_35">
     <g id="line2d_76">
      <g>
       <use style="stroke:#000000;stroke-width:0.8;" x="760.34375" xlink:href="#ma14b09d008" y="792.847806"/>
      </g>
     </g>
     <g id="text_87">
      <!-- 0.44 -->
      <g transform="translate(731.078125 796.647025)scale(0.1 -0.1)">
       <use xlink:href="#DejaVuSans-30"/>
       <use x="63.623047" xlink:href="#DejaVuSans-2e"/>
       <use x="95.410156" xlink:href="#DejaVuSans-34"/>
       <use x="159.033203" xlink:href="#DejaVuSans-34"/>
      </g>
     </g>
    </g>
    <g id="ytick_36">
     <g id="line2d_77">
      <g>
       <use style="stroke:#000000;stroke-width:0.8;" x="760.34375" xlink:href="#ma14b09d008" y="751.003682"/>
      </g>
     </g>
     <g id="text_88">
      <!-- 0.46 -->
      <g transform="translate(731.078125 754.802901)scale(0.1 -0.1)">
       <use xlink:href="#DejaVuSans-30"/>
       <use x="63.623047" xlink:href="#DejaVuSans-2e"/>
       <use x="95.410156" xlink:href="#DejaVuSans-34"/>
       <use x="159.033203" xlink:href="#DejaVuSans-36"/>
      </g>
     </g>
    </g>
    <g id="ytick_37">
     <g id="line2d_78">
      <g>
       <use style="stroke:#000000;stroke-width:0.8;" x="760.34375" xlink:href="#ma14b09d008" y="709.159557"/>
      </g>
     </g>
     <g id="text_89">
      <!-- 0.48 -->
      <g transform="translate(731.078125 712.958776)scale(0.1 -0.1)">
       <use xlink:href="#DejaVuSans-30"/>
       <use x="63.623047" xlink:href="#DejaVuSans-2e"/>
       <use x="95.410156" xlink:href="#DejaVuSans-34"/>
       <use x="159.033203" xlink:href="#DejaVuSans-38"/>
      </g>
     </g>
    </g>
    <g id="ytick_38">
     <g id="line2d_79">
      <g>
       <use style="stroke:#000000;stroke-width:0.8;" x="760.34375" xlink:href="#ma14b09d008" y="667.315433"/>
      </g>
     </g>
     <g id="text_90">
      <!-- 0.50 -->
      <g transform="translate(731.078125 671.114651)scale(0.1 -0.1)">
       <use xlink:href="#DejaVuSans-30"/>
       <use x="63.623047" xlink:href="#DejaVuSans-2e"/>
       <use x="95.410156" xlink:href="#DejaVuSans-35"/>
       <use x="159.033203" xlink:href="#DejaVuSans-30"/>
      </g>
     </g>
    </g>
    <g id="ytick_39">
     <g id="line2d_80">
      <g>
       <use style="stroke:#000000;stroke-width:0.8;" x="760.34375" xlink:href="#ma14b09d008" y="625.471308"/>
      </g>
     </g>
     <g id="text_91">
      <!-- 0.52 -->
      <g transform="translate(731.078125 629.270527)scale(0.1 -0.1)">
       <use xlink:href="#DejaVuSans-30"/>
       <use x="63.623047" xlink:href="#DejaVuSans-2e"/>
       <use x="95.410156" xlink:href="#DejaVuSans-35"/>
       <use x="159.033203" xlink:href="#DejaVuSans-32"/>
      </g>
     </g>
    </g>
    <g id="text_92">
     <!-- Silhouette -->
     <defs>
      <path d="M 54.890625 33.015625 
L 54.890625 0 
L 45.90625 0 
L 45.90625 32.71875 
Q 45.90625 40.484375 42.875 44.328125 
Q 39.84375 48.1875 33.796875 48.1875 
Q 26.515625 48.1875 22.3125 43.546875 
Q 18.109375 38.921875 18.109375 30.90625 
L 18.109375 0 
L 9.078125 0 
L 9.078125 75.984375 
L 18.109375 75.984375 
L 18.109375 46.1875 
Q 21.34375 51.125 25.703125 53.5625 
Q 30.078125 56 35.796875 56 
Q 45.21875 56 50.046875 50.171875 
Q 54.890625 44.34375 54.890625 33.015625 
z
" id="DejaVuSans-68"/>
     </defs>
     <g transform="translate(724.998438 738.589323)rotate(-90)scale(0.1 -0.1)">
      <use xlink:href="#DejaVuSans-53"/>
      <use x="63.476562" xlink:href="#DejaVuSans-69"/>
      <use x="91.259766" xlink:href="#DejaVuSans-6c"/>
      <use x="119.042969" xlink:href="#DejaVuSans-68"/>
      <use x="182.421875" xlink:href="#DejaVuSans-6f"/>
      <use x="243.603516" xlink:href="#DejaVuSans-75"/>
      <use x="306.982422" xlink:href="#DejaVuSans-65"/>
      <use x="368.505859" xlink:href="#DejaVuSans-74"/>
      <use x="407.714844" xlink:href="#DejaVuSans-74"/>
      <use x="446.923828" xlink:href="#DejaVuSans-65"/>
     </g>
    </g>
   </g>
   <g id="line2d_81">
    <path clip-path="url(#p4d67b7d1b4)" d="M 790.694602 707.894499 
L 796.888654 818.469697 
L 803.082705 727.588171 
L 809.276757 679.311538 
L 815.470808 681.156107 
L 821.66486 703.006822 
L 827.858911 724.490175 
L 834.052963 719.030949 
L 840.247014 711.395764 
L 846.441066 699.371432 
L 852.635117 673.35473 
L 858.829169 676.824458 
L 865.02322 673.607431 
L 871.217272 674.442864 
L 877.411323 648.984033 
L 883.605375 645.516992 
L 889.799426 646.21129 
L 895.993478 634.684101 
L 902.187529 632.918932 
L 908.38158 655.748737 
L 914.575632 653.61314 
L 920.769683 625.38742 
L 926.963735 656.612543 
L 933.157786 607.863636 
L 939.351838 639.403131 
L 945.545889 627.573814 
L 951.739941 652.305123 
L 957.933992 636.225865 
L 964.128044 656.580802 
L 970.322095 641.720364 
L 976.516147 637.788158 
L 982.710198 640.751738 
L 988.90425 652.128784 
L 995.098301 651.711025 
L 1001.292353 646.740252 
L 1007.486404 645.212214 
L 1013.680456 646.638535 
L 1019.874507 634.044268 
L 1026.068559 649.662107 
L 1032.26261 625.837766 
L 1038.456662 649.698279 
L 1044.650713 631.05731 
L 1050.844765 641.90958 
L 1057.038816 642.977892 
L 1063.232868 628.414853 
L 1069.426919 640.224889 
L 1075.620971 665.824749 
L 1081.815022 634.068727 
L 1088.009074 628.874976 
L 1094.203125 634.356982 
L 1100.397176 645.22385 
L 1106.591228 638.006009 
L 1112.785279 640.159398 
L 1118.979331 630.30432 
L 1125.173382 656.621878 
L 1131.367434 637.410612 
L 1137.561485 648.268674 
L 1143.755537 644.762768 
L 1149.949588 633.805506 
L 1156.14364 623.430591 
L 1162.337691 639.6638 
L 1168.531743 649.80535 
L 1174.725794 651.75738 
L 1180.919846 630.097524 
L 1187.113897 622.844759 
L 1193.307949 660.84008 
L 1199.502 668.410088 
L 1205.696052 666.307842 
L 1211.890103 657.612426 
L 1218.084155 648.172997 
L 1224.278206 637.36897 
L 1230.472258 639.720933 
L 1236.666309 631.010828 
L 1242.860361 643.32762 
L 1249.054412 666.124696 
L 1255.248464 659.625633 
L 1261.442515 647.84788 
L 1267.636567 650.388048 
L 1273.830618 657.579268 
L 1280.02467 657.581602 
L 1286.218721 683.650885 
L 1292.412772 665.66287 
L 1298.606824 662.249148 
L 1304.800875 667.474499 
L 1310.994927 680.044286 
L 1317.188978 648.777614 
L 1323.38303 670.571747 
L 1329.577081 687.931664 
L 1335.771133 650.374762 
L 1341.965184 655.382319 
L 1348.159236 668.256985 
L 1354.353287 647.351859 
L 1360.547339 664.545294 
L 1366.74139 680.066408 
L 1372.935442 662.138779 
L 1379.129493 665.418334 
L 1385.323545 694.245903 
L 1391.517596 686.478174 
L 1397.711648 670.671031 
" style="fill:none;stroke:#1f77b4;stroke-linecap:square;stroke-width:1.5;"/>
   </g>
   <g id="patch_28">
    <path d="M 760.34375 829 
L 760.34375 597.333333 
" style="fill:none;stroke:#000000;stroke-linecap:square;stroke-linejoin:miter;stroke-width:0.8;"/>
   </g>
   <g id="patch_29">
    <path d="M 1428.0625 829 
L 1428.0625 597.333333 
" style="fill:none;stroke:#000000;stroke-linecap:square;stroke-linejoin:miter;stroke-width:0.8;"/>
   </g>
   <g id="patch_30">
    <path d="M 760.34375 829 
L 1428.0625 829 
" style="fill:none;stroke:#000000;stroke-linecap:square;stroke-linejoin:miter;stroke-width:0.8;"/>
   </g>
   <g id="patch_31">
    <path d="M 760.34375 597.333333 
L 1428.0625 597.333333 
" style="fill:none;stroke:#000000;stroke-linecap:square;stroke-linejoin:miter;stroke-width:0.8;"/>
   </g>
   <g id="text_93">
    <!-- K-Means Silhouette -->
    <g transform="translate(1036.225312 591.333333)scale(0.12 -0.12)">
     <use xlink:href="#DejaVuSans-4b"/>
     <use x="65.419922" xlink:href="#DejaVuSans-2d"/>
     <use x="101.503906" xlink:href="#DejaVuSans-4d"/>
     <use x="187.783203" xlink:href="#DejaVuSans-65"/>
     <use x="249.306641" xlink:href="#DejaVuSans-61"/>
     <use x="310.585938" xlink:href="#DejaVuSans-6e"/>
     <use x="373.964844" xlink:href="#DejaVuSans-73"/>
     <use x="426.064453" xlink:href="#DejaVuSans-20"/>
     <use x="457.851562" xlink:href="#DejaVuSans-53"/>
     <use x="521.328125" xlink:href="#DejaVuSans-69"/>
     <use x="549.111328" xlink:href="#DejaVuSans-6c"/>
     <use x="576.894531" xlink:href="#DejaVuSans-68"/>
     <use x="640.273438" xlink:href="#DejaVuSans-6f"/>
     <use x="701.455078" xlink:href="#DejaVuSans-75"/>
     <use x="764.833984" xlink:href="#DejaVuSans-65"/>
     <use x="826.357422" xlink:href="#DejaVuSans-74"/>
     <use x="865.566406" xlink:href="#DejaVuSans-74"/>
     <use x="904.775391" xlink:href="#DejaVuSans-65"/>
    </g>
   </g>
  </g>
 </g>
 <defs>
  <clipPath id="pd055a31bff">
   <rect height="231.666667" width="667.71875" x="47.25" y="20"/>
  </clipPath>
  <clipPath id="pccfb761a6a">
   <rect height="231.666667" width="667.71875" x="760.34375" y="20"/>
  </clipPath>
  <clipPath id="pa2d8af0130">
   <rect height="231.666667" width="667.71875" x="47.25" y="308.666667"/>
  </clipPath>
  <clipPath id="p7ed233bd63">
   <rect height="231.666667" width="667.71875" x="760.34375" y="308.666667"/>
  </clipPath>
  <clipPath id="p935721767e">
   <rect height="231.666667" width="667.71875" x="47.25" y="597.333333"/>
  </clipPath>
  <clipPath id="p4d67b7d1b4">
   <rect height="231.666667" width="667.71875" x="760.34375" y="597.333333"/>
  </clipPath>
 </defs>
</svg>
